<svg xmlns="http://www.w3.org/2000/svg" width="500" height="600" viewBox="0 0 500 600">
  <defs>
    <style>
      .cls-1 {
        fill: #fbc871;
      }

      .cls-2 {
        fill: #db9829;
      }

      .cls-3 {
        fill: #f1ae2f;
      }

      .cls-4 {
        fill: #dbad65;
      }

      .cls-5 {
        fill: #1d1d1b;
      }

      .cls-6 {
        fill: #f3ba97;
      }

      .cls-7 {
        fill: none;
        stroke: #db9829;
        stroke-miterlimit: 10;
      }
    </style>
  </defs>
  <g id="Baggrundsfarve">
    <g>
      <path class="cls-1" d="M368.86,326.39l-169.37-239A7.5,7.5,0,0,0,186,90.25L132.68,364.19a7.48,7.48,0,0,0,1.92,6.58l115,121.45a7.49,7.49,0,0,0,11.62-.9L368.91,335A7.49,7.49,0,0,0,368.86,326.39Z"/>
      <path class="cls-2" d="M308.1,223.44l-38-18.06a12.24,12.24,0,0,0-13.44,2l-33,27.16a12.39,12.39,0,0,0-3.94,5.75c-2,6.3-2.24,10.21.95,14.51l40.92,55.15c5.53,7.45,15.54,4.37,19.42-4.06L314,239.58A12.21,12.21,0,0,0,308.1,223.44Z"/>
      <polygon class="cls-2" points="251.32 115.05 241.04 234.73 252.43 216.56 251.32 115.05"/>
      <polygon class="cls-2" points="295.59 97.77 285.31 217.45 296.69 199.28 295.59 97.77"/>
      <path class="cls-3" d="M314.86,222.23,276.31,201a12.23,12.23,0,0,0-13.54,1.16l-38.69,31a12.22,12.22,0,0,0-2.64,16.14l39,60.69a12.22,12.22,0,0,0,21-.78l38.24-70.44A12.2,12.2,0,0,0,314.86,222.23Z"/>
      <path class="cls-3" d="M347.53,454.07,286,311.26a15.86,15.86,0,0,0-28.68-.95L185.26,451a15.85,15.85,0,0,0,4.1,19.52l66.28,54a15.85,15.85,0,0,0,19.69.27l67.31-51.82A15.85,15.85,0,0,0,347.53,454.07Z"/>
      <polygon class="cls-3" points="251.32 114.1 243.75 234.73 252.43 215.61 251.32 114.1"/>
      <polygon class="cls-3" points="295.29 94.98 287.72 215.61 304.06 234.73 295.29 94.98"/>
      <polygon class="cls-4" points="280.58 262.42 273.29 255.63 265.02 262.78 274.73 271.5 280.58 262.42"/>
      <polygon class="cls-4" points="288.54 260.78 281.24 253.99 272.98 261.14 282.68 269.86 288.54 260.78"/>
      <circle class="cls-5" cx="262.53" cy="240.95" r="5.27"/>
      <circle class="cls-5" cx="287.72" cy="237.95" r="5.27"/>
      <rect class="cls-1" x="270.4" y="256.03" width="10.74" height="11.8" transform="translate(-101.47 310.38) rotate(-50.84)"/>
      <rect class="cls-1" x="277.85" y="254.82" width="10.74" height="11.8" transform="translate(-97.78 315.71) rotate(-50.84)"/>
      <path class="cls-6" d="M282.12,245.32l-10.7,1.59a2.77,2.77,0,0,0-1.7,4.55l7.46,8.73a2.77,2.77,0,0,0,4.76-1l3.23-10.31A2.77,2.77,0,0,0,282.12,245.32Z"/>
      <rect class="cls-2" x="254.58" y="230.29" width="12.09" height="2.38"/>
      <rect class="cls-2" x="281.47" y="227.95" width="12.09" height="2.38" transform="translate(-38.97 60.08) rotate(-11.18)"/>
      <polyline class="cls-7" points="229.47 402.88 243.75 423.82 260.62 387.06"/>
      <polyline class="cls-7" points="277.8 387.06 292.99 420.25 307.6 409.52"/>
    </g>
  </g>
</svg>
