<svg xmlns="http://www.w3.org/2000/svg" width="1600" height="900" viewBox="0 0 1600 900">
  <defs>
    <style>
      .cls-1 {
        fill: #f7d5e0;
      }

      .cls-2 {
        fill: #9fe2da;
      }

      .cls-3 {
        fill: #bdf9f4;
      }

      .cls-4 {
        fill: #2f9b93;
      }

      .cls-5 {
        fill: #288a86;
      }

      .cls-6 {
        fill: #66a39a;
      }

      .cls-7 {
        fill: #73bcb3;
      }

      .cls-8 {
        fill: #bcbcbc;
      }

      .cls-9 {
        fill: #999;
      }

      .cls-10 {
        fill: #143f39;
      }

      .cls-11 {
        fill: #4d4d4d;
      }

      .cls-12 {
        fill: #606060;
      }

      .cls-13 {
        fill: #ef8485;
      }

      .cls-14 {
        fill: #f3ba97;
      }

      .cls-15, .cls-20, .cls-21 {
        fill: none;
      }

      .cls-15 {
        stroke: #2eb4ab;
        stroke-miterlimit: 10;
        stroke-width: 21px;
      }

      .cls-16 {
        fill: #d77173;
      }

      .cls-17 {
        fill: #dba78d;
      }

      .cls-18 {
        fill: #1d1d1b;
      }

      .cls-19 {
        fill: #eb6481;
      }

      .cls-20 {
        stroke: #1d1d1b;
        stroke-width: 0.25px;
      }

      .cls-20, .cls-21 {
        stroke-linecap: round;
        stroke-linejoin: round;
      }

      .cls-21 {
        stroke: #f3ba97;
        stroke-width: 0.5px;
      }

      .cls-22 {
        fill: #d87073;
      }

      .cls-23 {
        fill: #fcb4bf;
      }
    </style>
  </defs>
  <g id="Baggrundsfarve">
    <rect class="cls-1" width="1600" height="900"/>
  </g>
  <g id="kant">
    <g>
      <g>
        <path class="cls-2" d="M585.35,140l61,85c8.82-6.36,12.06-17,7.21-23.73S594.33,133.86,585.35,140Z"/>
        <path class="cls-3" d="M585.81,139.65l61,85c-8.85,6.33-19.94,6-24.79-.75S577.11,146.19,585.81,139.65Z"/>
      </g>
      <rect class="cls-4" x="640.38" y="182.65" width="2.83" height="68.34" rx="1.41" transform="translate(-6.02 414.94) rotate(-35.67)"/>
      <rect class="cls-4" x="631.8" y="189.95" width="2.83" height="15.85" rx="1.41" transform="translate(-8.86 30.99) rotate(-2.78)"/>
      <rect class="cls-4" x="628.91" y="201.71" width="2.83" height="21.6" rx="1.41" transform="translate(239.93 751.08) rotate(-72.69)"/>
    </g>
    <g>
      <g>
        <path class="cls-2" d="M843.62,71.59l-4.85,98.93c10.29.49,18.94-5.48,19.32-13.34S853.9,72.31,843.62,71.59Z"/>
        <path class="cls-3" d="M844.18,71.59l-4.86,98.93C829,170,821,163.21,821.4,155.36S833.88,71.3,844.18,71.59Z"/>
      </g>
      <rect class="cls-4" x="838.86" y="129.42" width="2.68" height="64.71" rx="1.34" transform="translate(8.95 -41.01) rotate(2.81)"/>
      <rect class="cls-4" x="843.67" y="135.17" width="2.68" height="15.01" rx="1.34" transform="translate(242.04 -466.28) rotate(35.7)"/>
      <rect class="cls-4" x="832.91" y="141.59" width="2.68" height="20.45" rx="1.34" transform="matrix(0.83, -0.56, 0.56, 0.83, 58.99, 495.31)"/>
    </g>
    <ellipse class="cls-3" cx="658.09" cy="241.3" rx="56.66" ry="41.03" transform="translate(-22.78 407.8) rotate(-33.88)"/>
    <ellipse class="cls-3" cx="890.19" cy="184.76" rx="41.03" ry="56.66" transform="translate(512.88 1011.93) rotate(-77.21)"/>
    <ellipse class="cls-3" cx="1017.89" cy="303.18" rx="41.03" ry="56.66" transform="translate(3.81 618.87) rotate(-33.88)"/>
    <ellipse class="cls-5" cx="838.01" cy="179.36" rx="49.71" ry="36"/>
    <ellipse class="cls-5" cx="693.17" cy="226.86" rx="49.71" ry="36" transform="translate(-27.05 341.93) rotate(-27.2)"/>
    <ellipse class="cls-5" cx="1047.49" cy="366.25" rx="36" ry="49.71" transform="translate(-51.58 519.31) rotate(-27.2)"/>
    <g>
      <g>
        <path class="cls-2" d="M1046.85,150.65l-66.81,83c8.65,6.93,20,7.21,25.26.61S1055.34,157.78,1046.85,150.65Z"/>
        <path class="cls-3" d="M1047.33,151l-66.8,83c-8.63-7-11.32-17.94-6-24.54S1038.54,144.24,1047.33,151Z"/>
      </g>
      <rect class="cls-4" x="985.38" y="192.17" width="2.88" height="69.63" rx="1.44" transform="translate(360.2 -568.44) rotate(38.82)"/>
      <rect class="cls-4" x="1001.64" y="205.32" width="2.88" height="16.15" rx="1.44" transform="translate(890.8 -805.97) rotate(71.7)"/>
      <rect class="cls-4" x="986.5" y="203.54" width="2.88" height="22.01" rx="1.44" transform="translate(7.2 -30.82) rotate(1.79)"/>
    </g>
    <g>
      <g>
        <path class="cls-6" d="M1092.57,177.71l-90,79.2c9.1,10.3,22.25,13.56,29.39,7.26S1101.45,188.2,1092.57,177.71Z"/>
        <path class="cls-7" d="M1093.08,178.24l-90,79.21c-9.06-10.33-10.62-23.78-3.47-30.08S1083.8,168.11,1093.08,178.24Z"/>
      </g>
      <rect class="cls-4" x="1009.79" y="210.78" width="3.24" height="78.29" rx="1.62" transform="translate(530.67 -674.36) rotate(48.64)"/>
      <rect class="cls-4" x="1016.38" y="222.09" width="3.24" height="24.75" rx="1.62" transform="translate(68.07 -200.21) rotate(11.62)"/>
      <rect class="cls-4" x="1032.25" y="226.47" width="3.24" height="18.16" rx="1.62" transform="translate(1114.53 -821.73) rotate(81.53)"/>
    </g>
    <g>
      <g>
        <path class="cls-6" d="M789.36,45.53V165.4c13.74,0,24.87-7.75,24.87-17.27S803.1,45.8,789.36,45.53Z"/>
        <path class="cls-7" d="M790.1,45.5V165.36c-13.74,0-24.87-7.74-24.87-17.26S776.36,45.77,790.1,45.5Z"/>
      </g>
      <rect class="cls-4" x="788.31" y="115.02" width="3.24" height="78.29" rx="1.62"/>
      <rect class="cls-4" x="781.06" y="126.62" width="3.24" height="24.75" rx="1.62" transform="translate(74.09 499.29) rotate(-37.02)"/>
      <rect class="cls-4" x="792.37" y="118.73" width="3.24" height="18.16" rx="1.62" transform="translate(196.65 -410.65) rotate(32.89)"/>
    </g>
    <g>
      <g>
        <path class="cls-6" d="M540.06,158l69.85,97.41c11.16-8,15.7-20.78,10.16-28.52S551.39,150.2,540.06,158Z"/>
        <path class="cls-7" d="M540.65,157.53l69.85,97.41c-11.18,8-24.73,8.21-30.27.47S529.64,165.76,540.65,157.53Z"/>
      </g>
      <rect class="cls-4" x="602.21" y="206.79" width="3.24" height="78.29" rx="1.62" transform="translate(-30.19 397.96) rotate(-35.64)"/>
      <rect class="cls-4" x="587.48" y="225.47" width="3.24" height="24.75" rx="1.62" transform="translate(186.54 729.33) rotate(-72.67)"/>
      <rect class="cls-4" x="590.15" y="213.08" width="3.24" height="18.16" rx="1.62" transform="translate(-10 28.71) rotate(-2.76)"/>
    </g>
    <g>
      <g>
        <path class="cls-6" d="M500.83,248.75l76.76,58.71c6.72-8.81,7.23-19.72,1.13-24.39S507.73,240.08,500.83,248.75Z"/>
        <path class="cls-7" d="M501.17,248.26,577.94,307c-6.75,8.79-17.14,12.13-23.24,7.47S494.62,257.19,501.17,248.26Z"/>
      </g>
      <rect class="cls-4" x="569.38" y="270.03" width="2.61" height="63.12" rx="1.31" transform="translate(-15.57 571.67) rotate(-52.59)"/>
      <rect class="cls-4" x="556.11" y="288.83" width="2.61" height="19.95" rx="1.31" transform="translate(254.85 854.19) rotate(-89.61)"/>
      <rect class="cls-4" x="554.49" y="278.77" width="2.61" height="14.64" rx="1.31" transform="translate(-63.91 204.13) rotate(-19.7)"/>
    </g>
    <g>
      <rect class="cls-8" x="758.7" y="153.95" width="19.86" height="33.85" rx="9.93" transform="translate(-7.39 37.54) rotate(-2.78)"/>
      <rect class="cls-8" x="759.12" y="168.24" width="19.86" height="22.88" transform="translate(-7.82 37.57) rotate(-2.78)"/>
    </g>
    <g>
      <rect class="cls-8" x="946.38" y="196.15" width="19.86" height="33.85" rx="9.93" transform="translate(268.96 -485.12) rotate(32.89)"/>
      <rect class="cls-8" x="941.59" y="209.04" width="19.86" height="22.88" transform="translate(272.21 -481.34) rotate(32.89)"/>
    </g>
    <g>
      <rect class="cls-8" x="614.87" y="218.78" width="19.86" height="33.85" rx="9.93" transform="translate(0.09 471.65) rotate(-41.36)"/>
      <rect class="cls-8" x="620.7" y="230.88" width="19.86" height="22.88" transform="translate(-2.83 477.15) rotate(-41.36)"/>
    </g>
    <g>
      <rect class="cls-9" x="1048.67" y="353.02" width="32.36" height="64.9" rx="16.18" transform="translate(1289.23 -724.55) rotate(81.53)"/>
      <rect class="cls-9" x="1031.94" y="366.02" width="32.36" height="43.87" transform="translate(1277.43 -705.89) rotate(81.53)"/>
    </g>
    <g>
      <rect class="cls-9" x="592.4" y="214.14" width="32.36" height="64.9" rx="16.18" transform="translate(0.02 493.22) rotate(-44.12)"/>
      <rect class="cls-9" x="604.17" y="236.79" width="32.36" height="43.87" transform="translate(-5.11 504.84) rotate(-44.12)"/>
    </g>
    <g>
      <rect class="cls-9" x="540.27" y="291.53" width="32.36" height="64.9" rx="16.18" transform="translate(44.57 714.59) rotate(-67.56)"/>
      <rect class="cls-9" x="555.9" y="308.5" width="32.36" height="43.87" transform="translate(48.27 733.03) rotate(-67.56)"/>
    </g>
    <g>
      <rect class="cls-9" x="924.2" y="174.04" width="32.36" height="64.9" rx="16.18" transform="translate(262.83 -477.53) rotate(32.89)"/>
      <rect class="cls-9" x="915.02" y="198.75" width="32.36" height="43.87" transform="translate(269.07 -470.27) rotate(32.89)"/>
    </g>
    <g>
      <rect class="cls-8" x="1022.81" y="273.14" width="19.86" height="33.85" rx="9.93" transform="translate(739.62 -741.81) rotate(58.45)"/>
      <rect class="cls-8" x="1015.29" y="283.23" width="19.86" height="22.88" transform="translate(739.97 -733.21) rotate(58.45)"/>
    </g>
    <g>
      <path class="cls-10" d="M671.39,171.73c-3-9-19-100.8-3-106.13s58.1,77.87,61.08,86.84-7.62,20.55-23.66,25.88S674.36,180.69,671.39,171.73Z"/>
      <rect class="cls-10" x="708.43" y="149.03" width="5.39" height="84.34" rx="2.69" transform="translate(-24.02 233.81) rotate(-18.37)"/>
    </g>
    <g>
      <path class="cls-10" d="M885.73,140.57c3.66-8.85,52.19-89.95,68-83.4s-7,98.24-10.67,107.09-19.46,10.73-35.3,4.18S882.08,149.42,885.73,140.57Z"/>
      <rect class="cls-10" x="900.59" y="139.09" width="5.46" height="85.5" rx="2.73" transform="translate(137.85 -331.11) rotate(22.44)"/>
    </g>
    <g>
      <path class="cls-10" d="M1056,280.85c8.22-5.05,95.77-42.38,104.8-27.67s-63.88,75.88-72.1,80.93-22.2-2.79-31.23-17.5S1047.82,285.89,1056,280.85Z"/>
      <rect class="cls-10" x="1043.19" y="281.83" width="5.5" height="86.1" rx="2.75" transform="translate(775.59 -736.46) rotate(58.45)"/>
    </g>
    <g>
      <path class="cls-10" d="M641.14,184.78c-4.55-7.78-37.69-90.31-23.77-98.45s69.63,61.18,74.18,69-3,20.69-17,28.83S645.69,192.56,641.14,184.78Z"/>
      <rect class="cls-10" x="679.51" y="154.87" width="5.14" height="80.46" rx="2.57" transform="translate(-5.16 371.15) rotate(-30.33)"/>
    </g>
    <g>
      <g>
        <rect class="cls-11" x="715.86" y="135.68" width="46.78" height="60.14" rx="23.39" transform="translate(-18.35 165.49) rotate(-12.62)"/>
        <rect class="cls-11" x="719.28" y="160.71" width="46.78" height="40.66" transform="translate(-21.61 166.61) rotate(-12.62)"/>
      </g>
      <g>
        <path class="cls-12" d="M728.28,149.45l1.85-.42a1.85,1.85,0,0,1,1.51.15,4.46,4.46,0,0,1,1.1,2.45,3.18,3.18,0,0,1,0,2,1,1,0,0,1-.41.42v0a1.19,1.19,0,0,1,.53.2c.42.27.6.8.79,1.66l.66,3-1.16.26-.68-3.08a2.4,2.4,0,0,0-.4-1,.74.74,0,0,0-.74-.14l-.63.14,1,4.45-1.16.26Zm2.88,4.47a.72.72,0,0,0,.59-.48,4.9,4.9,0,0,0-.17-1.55,6.35,6.35,0,0,0-.54-1.65.66.66,0,0,0-.72-.21l-.66.15.87,3.88Z"/>
        <path class="cls-12" d="M734.59,148l1.16-.26L738,158l-1.16.26Z"/>
        <path class="cls-12" d="M738.28,147.21l1.77-.4a1.9,1.9,0,0,1,1.5.16c.64.47.93,1.7,1.25,3.12s.55,2.56.29,3.18a1.45,1.45,0,0,1-1.13.81l-.88.2.65,2.93-1.16.25Zm3.2,6c.31-.07.48-.22.52-.48a9.39,9.39,0,0,0-.36-2.39,9.18,9.18,0,0,0-.7-2.33.6.6,0,0,0-.7-.21l-.58.13,1.21,5.42Z"/>
      </g>
    </g>
    <g>
      <g>
        <rect class="cls-11" x="1048.69" y="323.69" width="46.78" height="60.14" rx="23.39" transform="translate(1043.69 -774.82) rotate(70.3)"/>
        <rect class="cls-11" x="1033.94" y="338.71" width="46.78" height="40.66" transform="translate(1038.88 -757.43) rotate(70.3)"/>
      </g>
      <g>
        <path class="cls-12" d="M1086.87,340.77l.64,1.78a1.87,1.87,0,0,1,0,1.52,4.35,4.35,0,0,1-2.29,1.39,3.13,3.13,0,0,1-1.94.27.9.9,0,0,1-.47-.35h0a1.21,1.21,0,0,1-.14.55c-.21.45-.72.69-1.55,1l-2.86,1-.4-1.12,3-1.06a2.57,2.57,0,0,0,1-.52.74.74,0,0,0,0-.76l-.21-.6-4.3,1.53-.4-1.12Zm-4.09,3.4a.73.73,0,0,0,.56.54,5,5,0,0,0,1.51-.37,5.71,5.71,0,0,0,1.57-.74.66.66,0,0,0,.12-.74l-.23-.63-3.74,1.34Z"/>
        <path class="cls-12" d="M1089.05,346.85l.4,1.12-9.9,3.55-.4-1.12Z"/>
        <path class="cls-12" d="M1090.32,350.41l.61,1.71a1.89,1.89,0,0,1,0,1.51c-.39.69-1.58,1.13-2.94,1.62s-2.47.87-3.13.69a1.49,1.49,0,0,1-.94-1l-.3-.84-2.82,1-.4-1.12Zm-5.57,3.93c.11.3.28.45.54.45a9.34,9.34,0,0,0,2.33-.65,9.5,9.5,0,0,0,2.22-1,.59.59,0,0,0,.12-.72l-.2-.56-5.22,1.87Z"/>
      </g>
    </g>
    <g>
      <path class="cls-10" d="M557,285.78c-7.5-6.14-71.83-77-60.84-90.4S589.31,231,596.81,237.16s4.68,22-6.32,35.43S564.51,291.92,557,285.78Z"/>
      <rect class="cls-10" x="599.39" y="237.58" width="5.53" height="86.56" rx="2.76" transform="translate(3.41 568.9) rotate(-50.7)"/>
    </g>
  </g>
  <g id="baggrund_cirkel" data-name="baggrund cirkel">
    <circle class="cls-5" cx="805.35" cy="441.86" r="247.24"/>
  </g>
  <g id="krop">
    <path class="cls-13" d="M810.33,694.55a249,249,0,0,0,182.85-83.33c-5.38-77.42-86.91-138.1-185.84-136.76S628.56,538.67,625.28,616.21A249.06,249.06,0,0,0,810.33,694.55Z"/>
    <path class="cls-14" d="M847.4,521.68c-66,0-119.54,44.11-119.54,98.51,0,27.47,13.66,52.32,35.67,70.19a251.27,251.27,0,0,0,45.71,4.18,248.53,248.53,0,0,0,155.15-54.09,82.37,82.37,0,0,0,2.54-20.28C966.93,565.79,913.41,521.68,847.4,521.68Z"/>
  </g>
  <g id="kant-2" data-name="kant">
    <ellipse class="cls-15" cx="804.57" cy="443.24" rx="246.32" ry="250.51"/>
  </g>
  <g id="hoved">
    <g>
      <path class="cls-14" d="M807.87,239.42l-34,42.27c-6.2,9.85,7.93,12.88,15.12,22l25.16,31.95a27.52,27.52,0,0,0,31.41,8.7l36.73-6.8c26.08,6.08,39.8-14.57,27.3-34.81l-9.89-28c-.7-11.62-12.71-33.11-23.89-36.36l-37-10.74A27.54,27.54,0,0,0,807.87,239.42Z"/>
      <ellipse class="cls-16" cx="747.99" cy="434.63" rx="148.9" ry="129.12" transform="matrix(0.95, -0.31, 0.31, 0.95, -98.32, 255.3)"/>
      <polygon class="cls-17" points="801.89 259.38 882.16 337.37 729.57 346.98 801.89 259.38"/>
      <ellipse class="cls-13" cx="741.6" cy="415.18" rx="153.93" ry="136.87" transform="translate(-92.56 252.33) rotate(-18.2)"/>
      <polygon class="cls-16" points="618.91 341.14 602.84 481.51 569.72 369.72 618.91 341.14"/>
      <path class="cls-14" d="M511.18,378.15,539.8,445c21.53,86,65.58,53.09,61.3-25.28L617,355a20.78,20.78,0,0,0-24.15-26.48l-71,15A20.79,20.79,0,0,0,511.18,378.15Z"/>
      <circle class="cls-18" cx="701.9" cy="402.46" r="9.81"/>
      <circle class="cls-18" cx="837.96" cy="357.73" r="8.87"/>
      <rect class="cls-14" x="672.69" y="380.28" width="26.97" height="11.54" rx="2.42" transform="translate(-75.17 586.58) rotate(-44.12)"/>
      <rect class="cls-14" x="823.47" y="331.06" width="26.97" height="11.54" rx="2.42" transform="translate(21.52 -49.19) rotate(3.41)"/>
      <path class="cls-14" d="M878.15,397.72c-2.69-10.49-22.43-22.12-53.95-21.66-25.29.36-25.87,2.41-34.19,7.38"/>
      <path class="cls-14" d="M899.7,420.75c27.79,67-33.43,75.28-81.39,112.46-79,61.26-129.47,43.66-143.2-38.64-7.22-43.29,27.2-79.06,89.61-105.93C833.13,359.2,882,378,899.7,420.75Z"/>
      <path class="cls-16" d="M800.75,374.39l-51,23.1c-2.1,2.62-2.77,8.12-.25,12.75l54.74,11.62c4.49.92,5.07-25.79,6-30.18l.87-9.9C812,377,807.16,373.16,800.75,374.39Z"/>
      <path class="cls-19" d="M839.29,472.56c-7.28,5.62-17.39-.11-27.32-8.16-11.49-9.31-10.87-18.58-1-28.51,10.17-10.18,19.82-5.53,27.32,8.17C844.49,455.27,846.58,467,839.29,472.56Z"/>
      <path class="cls-20" d="M696.87,492.55c3.19,7.65,8.93,13.09,15.93,17.27,11.54,6.89,24.65,11.33,38.16,11.7,12.34.33,26.23-2.61,35.12-11.78a36.49,36.49,0,0,0,5.72-7.6c1-1.73,1.9-3.46,2.77-5.23a61,61,0,0,0,5-14.69,82.77,82.77,0,0,0,2-15.92c.06-10.41.64-21.6,8.05-29.67,4.17-4.54,9.87-6.67,15.54-8.61a42.21,42.21,0,0,1,8.94-1.51,57.19,57.19,0,0,0-16.39,4.64"/>
      <path class="cls-21" d="M740.17,388.22a70.64,70.64,0,0,1,58.41-22.62"/>
    </g>
  </g>
  <g id="Layer_12" data-name="Layer 12">
    <g>
      <path class="cls-22" d="M513.58,647.8h-.35l-.71,4.77H485V627h5a40.86,40.86,0,0,0,19.87,5.21,18.65,18.65,0,0,0,8.66-1.68v-.35C494.15,628,484,621.13,484,609c0-11,8.12-17.84,20.49-17.84a24.33,24.33,0,0,1,16.77,6.18h.36l.7-4.77h27.55v23.4h-5c-4.41-2.56-11.3-4.24-17.66-4.24a21.71,21.71,0,0,0-8.92,1.68v.35c25.26,2.74,34.7,8.75,34.7,21.64,0,11.92-8.12,18.63-21.45,18.63C524.44,654,519.32,652.13,513.58,647.8Z"/>
      <path class="cls-22" d="M555,630.14h3.27v-4.77H555V613.71c3.27,2.92,9.36,4.77,16.16,4.77a30,30,0,0,0,14.13-3.27v14.93h3.27v22.43H555Zm.79-27.91c0-8.12,5.92-13.33,15.28-13.33s15.28,5.21,15.28,13.33-5.92,13.34-15.28,13.34S555.79,610.36,555.79,602.23Z"/>
      <path class="cls-22" d="M591.82,630.14h3.27v-4.77h-3.27V602.94H620.7v8.92h.35c3.62-7.24,9.45-10.33,17.13-10.33,8.22,0,13.51,3.53,15.46,10.33H654c3.53-7,9.18-10.33,17.13-10.33,10.86,0,16.51,6.09,16.51,17.48v11.13h3.27v22.43H661.14V625.19c0-2-1.06-3.18-2.91-3.18a3.89,3.89,0,0,0-3.62,2.65v5.48h3.27v22.43H628.12V625.19c0-2-1.06-3.18-2.92-3.18a3.9,3.9,0,0,0-3.62,2.65v5.48h3.27v22.43h-33Z"/>
      <path class="cls-22" d="M693.12,627.75c0-16.77,11.3-26.22,31.43-26.22S756,611,756,627.75,744.68,654,724.55,654,693.12,644.53,693.12,627.75Zm34.61,0c0-4.41-1-6.09-3.18-6.09s-3.18,1.68-3.18,6.09,1,6.1,3.18,6.1S727.73,632.17,727.73,627.75Z"/>
      <path class="cls-22" d="M758.64,630.14h3.27v-4.77h-3.27V602.94h29.41v8.92h.35c3.53-7,9.18-10.33,17.31-10.33,11,0,16.77,6.09,16.77,17.48v11.13h3.27v22.43H795.46V625.19c0-2-1.06-3.18-2.91-3.18a3.89,3.89,0,0,0-3.62,2.65v5.48h3.27v22.43H758.64Z"/>
      <path class="cls-22" d="M869.38,648.59H869l-.52,4H844.83V631.29h4.42a30.7,30.7,0,0,0,16.6,4.41,16.37,16.37,0,0,0,6.27-1v-.35c-20.58-2.74-28.26-8.66-28.26-18,0-8.74,6.8-14.83,17.57-14.83a20.28,20.28,0,0,1,14.48,5.38h.36l.53-4h23.66v19.52h-4.41a32.91,32.91,0,0,0-15.37-3.54,17.84,17.84,0,0,0-5.83.8v.35c21.73,4.42,28.35,8.21,28.35,17.93,0,9.89-6.89,16-18.63,16C878.74,654,874.41,652.48,869.38,648.59Z"/>
      <path class="cls-22" d="M905.14,630.14h3.27v-4.77h-3.27V613.71c3.27,2.92,9.36,4.77,16.16,4.77a30,30,0,0,0,14.13-3.27v14.93h3.27v22.43H905.14Zm.8-27.91c0-8.12,5.92-13.33,15.28-13.33s15.27,5.21,15.27,13.33-5.91,13.34-15.27,13.34S905.94,610.36,905.94,602.23Z"/>
      <path class="cls-22" d="M940.29,652.65c0-4.41,1.59-7.41,5.21-9.36v-.35a8.26,8.26,0,0,1,3.18-13.24v-.36c-4.15-2.56-6-6.18-6-11.21,0-11.13,9.09-16.6,27.64-16.6a32.56,32.56,0,0,1,7.41.62c1.94-8.48,7.95-13.25,16.34-13.25,8.74,0,14.13,5.21,14.13,13.33,0,7.86-5.12,13.25-13.78,13.25-4.24,0-8.56-1.33-11-4.42l-.26.18c1.24,4,6.89,7.24,13.86,7.24a19.65,19.65,0,0,0,8.74-1.85c0,13.15-7.32,17.3-29.93,17.3q-6.88,0-12.19-.53l-.17.27c.44,1.59,2.2,2.3,5.91,2.3h23.32c9.53,0,14.48,4.68,14.48,13.77,0,12.19-8.92,16.43-34.79,16.43C948.68,666.17,940.29,662.63,940.29,652.65Zm38.94-2.38c0-1.41-1.06-1.85-4-1.85h-8.12a2.16,2.16,0,0,0-.62,1.67c0,1.95,1.59,2.56,6.36,2.56S979.23,652,979.23,650.27Zm-3.44-32.41c0-3.18-.88-4.5-2.83-4.5s-2.82,1.32-2.82,4.5.88,4.51,2.82,4.51S975.79,621,975.79,617.86Z"/>
      <path class="cls-22" d="M1008.29,627.75c0-17,11-26.22,31.26-26.22,18.54,0,28.35,7.68,28.35,21.81a36.19,36.19,0,0,1-.62,6.62h-31.09c.36,3.27,2.92,4.24,10.42,4.24a73.09,73.09,0,0,0,17.66-2l2.12,17.92c-6.09,2.56-14,3.89-23.13,3.89Q1008.3,654,1008.29,627.75Zm34.17-4.06v-.79c0-4-1-5.74-3.17-5.74s-3.18,1.76-3.18,5.74v.79Z"/>
      <path class="cls-22" d="M1069.49,639.94c0-8.39,6.36-14,15.89-14s15.9,5.65,15.9,14-6.36,14-15.9,14S1069.49,648.33,1069.49,639.94Z"/>
      <path class="cls-22" d="M1103,639.94c0-8.39,6.36-14,15.9-14s15.89,5.65,15.89,14-6.35,14-15.89,14S1103,648.33,1103,639.94Z"/>
      <path class="cls-22" d="M609.8,736.11h3.53V720.92H609.8V698.49h66.75v27.82H650.77v-8h-9v4.86h5.48V733.9h-5.48v4.86h9v-8h26.67v27.82H609.8Z"/>
      <path class="cls-22" d="M680,728.52c0-19.78,11.92-31.44,30.38-31.44,7,0,12.36,1.59,16,4.68h.35l.71-3.27h20.4V722.6H720.27c-.35-1.06-2.3-2.12-4.51-2.12-3.53,0-5.56,2.65-5.56,8,0,5.73,2.3,8,6.27,8a6.46,6.46,0,0,0,3.8-1.06v-2.74h-5.21v-6.62H748.7v32.41H727.42l-.71-3.27h-.35c-3.62,3.09-9,4.68-16,4.68C691.92,760,680,748.29,680,728.52Z"/>
      <path class="cls-22" d="M752.24,736.11h3.53V720.92h-3.53V698.49H819v27.82H793.21v-8h-9v4.86h5.48V733.9H784.2v4.86h9v-8h26.67v27.82H752.24Z"/>
      <path class="cls-22" d="M860.15,746.09l-4.41-9.72h-.36v3.45a20.24,20.24,0,0,0,3.53,11.83v6.89H823.42V736.11H827V720.92h-3.53V698.49h43.71c18.28,0,25.78,5.3,25.78,17.57,0,7.51-2.74,12.1-8.83,14.49l1.5,2.38c1.5,2.3,2.83,3.18,5.48,3.18a5.06,5.06,0,0,0,1.85-.27v22.7c-2.3,1-5.39,1.41-9.62,1.41C871,760,864.74,756.24,860.15,746.09Zm2.56-25.61c0-2.74-1.68-4.06-4.68-4.06h-2.65v7.33a7.46,7.46,0,0,0,3.09.62C861.3,724.37,862.71,723,862.71,720.48Z"/>
      <path class="cls-22" d="M896.45,736.11H900V720.92h-3.53V698.49h42.21l6.71,24.73h.35V698.49h27.82v22.43H970v37.62H935.74l-11.12-38.86h-.36v19.08h3.54v19.78H896.45Z"/>
      <path class="cls-22" d="M975.57,698.49h34.79l-4.59,34.79a31.4,31.4,0,0,0-25.61,0Zm1.94,48.39c0-8.12,5.92-13.07,15.46-13.07s15.45,5,15.45,13.07S1002.5,760,993,760,977.51,755,977.51,746.88Z"/>
    </g>
    <g>
      <path class="cls-23" d="M504.79,647.8h-.35l-.71,4.77H476.18V627h5a40.79,40.79,0,0,0,19.86,5.21,18.65,18.65,0,0,0,8.66-1.68v-.35c-24.37-2.12-34.53-9-34.53-21.19,0-11,8.12-17.84,20.49-17.84a24.33,24.33,0,0,1,16.77,6.18h.36l.7-4.77h27.55v23.4h-5c-4.41-2.56-11.3-4.24-17.66-4.24a21.71,21.71,0,0,0-8.92,1.68v.35c25.26,2.74,34.7,8.75,34.7,21.64,0,11.92-8.12,18.63-21.45,18.63C515.65,654,510.53,652.13,504.79,647.8Z"/>
      <path class="cls-23" d="M546.21,630.14h3.27v-4.77h-3.27V613.71c3.27,2.92,9.36,4.77,16.16,4.77a30,30,0,0,0,14.13-3.27v14.93h3.27v22.43H546.21Zm.8-27.91c0-8.12,5.91-13.33,15.27-13.33s15.28,5.21,15.28,13.33-5.92,13.34-15.28,13.34S547,610.36,547,602.23Z"/>
      <path class="cls-23" d="M583,630.14h3.26v-4.77H583V602.94h28.87v8.92h.35c3.62-7.24,9.45-10.33,17.13-10.33,8.22,0,13.51,3.53,15.46,10.33h.35c3.53-7,9.18-10.33,17.13-10.33,10.86,0,16.51,6.09,16.51,17.48v11.13h3.27v22.43H652.35V625.19c0-2-1.06-3.18-2.91-3.18a3.89,3.89,0,0,0-3.62,2.65v5.48h3.27v22.43H619.33V625.19c0-2-1.06-3.18-2.92-3.18a3.9,3.9,0,0,0-3.62,2.65v5.48h3.27v22.43H583Z"/>
      <path class="cls-23" d="M684.33,627.75c0-16.77,11.3-26.22,31.43-26.22S747.2,611,747.2,627.75,735.89,654,715.76,654,684.33,644.53,684.33,627.75Zm34.61,0c0-4.41-1-6.09-3.18-6.09s-3.18,1.68-3.18,6.09,1,6.1,3.18,6.1S718.94,632.17,718.94,627.75Z"/>
      <path class="cls-23" d="M749.85,630.14h3.27v-4.77h-3.27V602.94h29.41v8.92h.35c3.53-7,9.18-10.33,17.31-10.33,11,0,16.77,6.09,16.77,17.48v11.13H817v22.43H786.67V625.19c0-2-1.06-3.18-2.91-3.18a3.89,3.89,0,0,0-3.62,2.65v5.48h3.27v22.43H749.85Z"/>
      <path class="cls-23" d="M860.59,648.59h-.35l-.53,4H836V631.29h4.42a30.7,30.7,0,0,0,16.6,4.41,16.37,16.37,0,0,0,6.27-1v-.35c-20.58-2.74-28.26-8.66-28.26-18,0-8.74,6.8-14.83,17.57-14.83a20.28,20.28,0,0,1,14.48,5.38h.36l.53-4h23.66v19.52h-4.41a32.91,32.91,0,0,0-15.37-3.54,17.84,17.84,0,0,0-5.83.8v.35c21.73,4.42,28.35,8.21,28.35,17.93,0,9.89-6.89,16-18.63,16C870,654,865.62,652.48,860.59,648.59Z"/>
      <path class="cls-23" d="M896.36,630.14h3.26v-4.77h-3.26V613.71c3.26,2.92,9.36,4.77,16.15,4.77a30,30,0,0,0,14.13-3.27v14.93h3.27v22.43H896.36Zm.79-27.91c0-8.12,5.92-13.33,15.28-13.33s15.27,5.21,15.27,13.33-5.91,13.34-15.27,13.34S897.15,610.36,897.15,602.23Z"/>
      <path class="cls-23" d="M931.5,652.65c0-4.41,1.59-7.41,5.21-9.36v-.35a8.26,8.26,0,0,1,3.18-13.24v-.36c-4.15-2.56-6-6.18-6-11.21,0-11.13,9.09-16.6,27.64-16.6a32.56,32.56,0,0,1,7.41.62c1.95-8.48,7.95-13.25,16.34-13.25,8.74,0,14.13,5.21,14.13,13.33,0,7.86-5.12,13.25-13.78,13.25-4.24,0-8.56-1.33-11-4.42l-.26.18c1.24,4,6.89,7.24,13.86,7.24a19.7,19.7,0,0,0,8.75-1.85c0,13.15-7.33,17.3-29.94,17.3q-6.88,0-12.19-.53l-.17.27c.44,1.59,2.21,2.3,5.91,2.3h23.32c9.53,0,14.48,4.68,14.48,13.77,0,12.19-8.92,16.43-34.79,16.43C939.89,666.17,931.5,662.63,931.5,652.65Zm38.94-2.38c0-1.41-1.06-1.85-4-1.85h-8.12a2.19,2.19,0,0,0-.62,1.67c0,1.95,1.59,2.56,6.36,2.56S970.44,652,970.44,650.27ZM967,617.86c0-3.18-.88-4.5-2.83-4.5s-2.82,1.32-2.82,4.5.88,4.51,2.82,4.51S967,621,967,617.86Z"/>
      <path class="cls-23" d="M999.5,627.75c0-17,11-26.22,31.26-26.22,18.54,0,28.35,7.68,28.35,21.81a36.19,36.19,0,0,1-.62,6.62h-31.08c.35,3.27,2.91,4.24,10.42,4.24a73.21,73.21,0,0,0,17.66-2l2.11,17.92c-6.09,2.56-14,3.89-23.13,3.89Q999.5,654,999.5,627.75Zm34.17-4.06v-.79c0-4-1-5.74-3.17-5.74s-3.18,1.76-3.18,5.74v.79Z"/>
      <path class="cls-23" d="M1060.7,639.94c0-8.39,6.36-14,15.89-14s15.9,5.65,15.9,14-6.36,14-15.9,14S1060.7,648.33,1060.7,639.94Z"/>
      <path class="cls-23" d="M1094.26,639.94c0-8.39,6.35-14,15.89-14s15.89,5.65,15.89,14-6.35,14-15.89,14S1094.26,648.33,1094.26,639.94Z"/>
      <path class="cls-23" d="M601,736.11h3.53V720.92H601V698.49h66.75v27.82H642v-8h-9v4.86h5.48V733.9H633v4.86h9v-8h26.67v27.82H601Z"/>
      <path class="cls-23" d="M671.21,728.52c0-19.78,11.92-31.44,30.38-31.44,7,0,12.36,1.59,16,4.68h.35l.71-3.27H739V722.6H711.48c-.35-1.06-2.3-2.12-4.51-2.12-3.53,0-5.56,2.65-5.56,8,0,5.73,2.3,8,6.27,8a6.46,6.46,0,0,0,3.8-1.06v-2.74h-5.21v-6.62h33.64v32.41H718.63l-.71-3.27h-.35c-3.62,3.09-9,4.68-16,4.68C683.13,760,671.21,748.29,671.21,728.52Z"/>
      <path class="cls-23" d="M743.45,736.11H747V720.92h-3.53V698.49h66.76v27.82H784.42v-8h-9v4.86h5.48V733.9h-5.48v4.86h9v-8h26.67v27.82H743.45Z"/>
      <path class="cls-23" d="M851.36,746.09,847,736.37h-.36v3.45a20.24,20.24,0,0,0,3.53,11.83v6.89H814.63V736.11h3.53V720.92h-3.53V698.49h43.71c18.28,0,25.78,5.3,25.78,17.57,0,7.51-2.74,12.1-8.83,14.49l1.5,2.38c1.5,2.3,2.83,3.18,5.48,3.18a5.06,5.06,0,0,0,1.85-.27v22.7c-2.3,1-5.39,1.41-9.62,1.41C862.22,760,856,756.24,851.36,746.09Zm2.56-25.61c0-2.74-1.68-4.06-4.68-4.06h-2.65v7.33a7.46,7.46,0,0,0,3.09.62C852.51,724.37,853.92,723,853.92,720.48Z"/>
      <path class="cls-23" d="M887.66,736.11h3.53V720.92h-3.53V698.49h42.21l6.71,24.73h.35V698.49h27.82v22.43h-3.54v37.62H927l-11.12-38.86h-.36v19.08H919v19.78H887.66Z"/>
      <path class="cls-23" d="M966.78,698.49h34.79L997,733.28a31.4,31.4,0,0,0-25.61,0Zm1.94,48.39c0-8.12,5.92-13.07,15.46-13.07s15.45,5,15.45,13.07S993.71,760,984.18,760,968.72,755,968.72,746.88Z"/>
    </g>
  </g>
</svg>
