<svg xmlns="http://www.w3.org/2000/svg" width="1600" height="900" viewBox="0 0 1600 900">
  <defs>
    <style>
      .cls-1 {
        fill: #fcb4bf;
      }

      .cls-2 {
        fill: #d87073;
      }

      .cls-3 {
        fill: #ffc0a1;
      }

      .cls-4 {
        fill: #fcf1e0;
        opacity: 0.6;
      }

      .cls-5 {
        fill: #f3ba97;
      }

      .cls-6 {
        fill: #ef8485;
      }

      .cls-7 {
        fill: #d77173;
      }

      .cls-8 {
        fill: #dba78d;
      }

      .cls-9 {
        fill: #1d1d1b;
      }

      .cls-10 {
        fill: #eb6481;
      }

      .cls-11, .cls-12 {
        fill: none;
        stroke-linecap: round;
        stroke-linejoin: round;
      }

      .cls-11 {
        stroke: #1d1d1b;
        stroke-width: 0.25px;
      }

      .cls-12 {
        stroke: #f3ba97;
        stroke-width: 0.5px;
      }

      .cls-13 {
        fill: #6d393e;
      }

      .cls-14 {
        fill: #7a424a;
      }

      .cls-15 {
        fill: #1d3458;
      }

      .cls-16 {
        fill: #eab094;
      }

      .cls-17 {
        fill: #dba68f;
      }

      .cls-18 {
        fill: #e0aa92;
      }

      .cls-19 {
        fill: #b55d63;
      }

      .cls-20 {
        fill: #b2b2b2;
      }

      .cls-21 {
        fill: #fff;
      }
    </style>
  </defs>
  <g id="Baggrundsfarve">
    <rect class="cls-1" x="-1" y="2" width="1600" height="900"/>
    <rect class="cls-2" x="-13" y="815" width="1653" height="89"/>
    <g>
      <rect class="cls-3" x="578.11" y="221.14" width="505.06" height="59.42" rx="29.71"/>
      <path class="cls-4" d="M580.41,244.9l49.64-12.43c-4.89-4.32-12.12-7.29-20.34-7.8-15.51-.95-28.63,7.23-29.31,18.27A16,16,0,0,0,580.41,244.9Z"/>
    </g>
    <g>
      <path class="cls-5" d="M963.46,214l-39.93,28c-7.82,6.95,3.62,13.1,7.54,22.8l13.71,33.9A24.74,24.74,0,0,0,969.72,314l33.42,3.33c21,11.79,38-2.6,32.29-23.21l-1.52-26.67c2.31-10.21-2.67-31.78-11.51-37.38l-29.25-18.55A24.74,24.74,0,0,0,963.46,214Z"/>
      <ellipse class="cls-6" cx="689.41" cy="793.68" rx="41.63" ry="30.6" transform="translate(-27.39 24.65) rotate(-2.01)"/>
      <ellipse class="cls-6" cx="1017.95" cy="794.22" rx="41.63" ry="30.6" transform="translate(-27.21 36.16) rotate(-2.01)"/>
      <ellipse class="cls-7" cx="850.41" cy="617.25" rx="219.72" ry="226.91" transform="translate(-21.11 30.18) rotate(-2.01)"/>
      <ellipse class="cls-7" cx="720.45" cy="813.17" rx="41.63" ry="30.6" transform="translate(-28.06 25.75) rotate(-2.01)"/>
      <ellipse class="cls-7" cx="977.22" cy="820.68" rx="41.63" ry="30.6" transform="translate(-28.16 34.75) rotate(-2.01)"/>
      <circle class="cls-6" cx="864.42" cy="609.02" r="229.58"/>
      <ellipse class="cls-5" cx="884.82" cy="620.71" rx="151.49" ry="172.49" transform="translate(-21.21 31.39) rotate(-2.01)"/>
      <ellipse class="cls-6" cx="726.28" cy="816.51" rx="41.63" ry="30.6" transform="translate(-28.17 25.96) rotate(-2.01)"/>
      <ellipse class="cls-6" cx="985.19" cy="820.41" rx="41.63" ry="30.6" transform="translate(-28.15 35.03) rotate(-2.01)"/>
      <ellipse class="cls-7" cx="862.83" cy="367.49" rx="133.87" ry="116.09" transform="translate(-12.35 30.47) rotate(-2.01)"/>
      <polygon class="cls-8" points="953.29 229.68 1003.05 317.14 868.89 287.19 953.29 229.68"/>
      <ellipse class="cls-6" cx="862.19" cy="349.09" rx="138.39" ry="123.05" transform="translate(-11.71 30.43) rotate(-2.01)"/>
      <polygon class="cls-7" points="774.81 254.42 725.76 371.59 725.18 266.76 774.81 254.42"/>
      <path class="cls-5" d="M672.52,259.37l8,64.91c-3,79.68,43.32,62.27,59.27-6.46l30-51.94A18.69,18.69,0,0,0,755.52,237l-65-4.86A18.69,18.69,0,0,0,672.52,259.37Z"/>
      <circle class="cls-9" cx="831.1" cy="328.16" r="8.82"/>
      <circle class="cls-9" cx="959.79" cy="323.64" r="7.98"/>
      <rect class="cls-5" x="809.51" y="304.86" width="24.24" height="10.37" rx="2.42" transform="translate(-49.52 420.98) rotate(-27.93)"/>
      <rect class="cls-5" x="952.04" y="300.15" width="24.24" height="10.37" rx="2.42" transform="translate(158.26 -305.69) rotate(19.6)"/>
      <path class="cls-5" d="M984.46,368.24c.3-9.73-13.82-24.72-41.15-32.22-21.92-6-22.94-4.4-31.37-2.2"/>
      <path class="cls-5" d="M997.3,393.53c7.19,64.83-47.73,56.62-98.47,76.7-83.57,33.09-122.72,5.25-114-69.25,4.61-39.19,43.3-61.45,103.92-69C955.25,323.7,992.71,352.2,997.3,393.53Z"/>
      <path class="cls-7" d="M923.48,328.7l-49.82,7.16c-2.47,1.74-4.43,6.32-3.42,10.95l44.36,23.75c3.64,1.93,10.84-21,12.69-24.56l3.24-8.34C932.55,333.78,929.33,329.24,923.48,328.7Z"/>
      <path class="cls-10" d="M932.16,423.13c-7.7,3-15-4.46-21.55-13.9-7.59-10.92-4.73-18.77,6.32-24.85,11.34-6.25,18.5.19,21.55,13.9C941,409.5,939.85,420.1,932.16,423.13Z"/>
      <path class="cls-11" d="M804.18,404.69c.84,7.4,4.43,13.53,9.42,18.9,8.24,8.85,18.45,16,30,19.66,10.57,3.38,23.29,4.33,33.27-1.36a32.46,32.46,0,0,0,6.84-5.13c1.26-1.25,2.51-2.51,3.7-3.83a54.48,54.48,0,0,0,8-11.43,74.47,74.47,0,0,0,5.73-13.25c2.66-9,6-18.48,14.39-23.6,4.73-2.87,10.19-3.28,15.57-3.54a38.21,38.21,0,0,1,8.1.95,51.42,51.42,0,0,0-15.32-.11"/>
      <path class="cls-12" d="M867.71,325.46a63.52,63.52,0,0,1,56.1-4.89"/>
    </g>
    <g>
      <ellipse class="cls-13" cx="1117.96" cy="503.66" rx="30.58" ry="29.8"/>
      <ellipse class="cls-13" cx="1282.27" cy="487.65" rx="30.58" ry="29.8"/>
      <ellipse class="cls-13" cx="1148.99" cy="474.3" rx="30.58" ry="29.8"/>
      <ellipse class="cls-13" cx="1185.51" cy="442.28" rx="30.58" ry="29.8"/>
      <ellipse class="cls-13" cx="1243.02" cy="462.74" rx="30.58" ry="29.8"/>
      <ellipse class="cls-14" cx="1171.82" cy="474.3" rx="30.58" ry="29.8"/>
      <ellipse class="cls-14" cx="1252.14" cy="498.32" rx="30.58" ry="29.8"/>
      <ellipse class="cls-13" cx="1211.98" cy="405.8" rx="30.58" ry="29.8"/>
      <ellipse class="cls-14" cx="1222.02" cy="433.38" rx="30.58" ry="29.8"/>
      <ellipse class="cls-13" cx="1211.07" cy="471.63" rx="30.58" ry="29.8"/>
      <ellipse class="cls-13" cx="1148.99" cy="517" rx="30.58" ry="29.8"/>
      <ellipse class="cls-13" cx="1190.98" cy="517" rx="30.58" ry="29.8"/>
      <ellipse class="cls-13" cx="1251.23" cy="517" rx="30.58" ry="29.8"/>
      <ellipse class="cls-14" cx="1222.02" cy="520.56" rx="30.58" ry="29.8"/>
      <ellipse class="cls-14" cx="1304.17" cy="522.34" rx="30.58" ry="29.8"/>
      <ellipse class="cls-13" cx="1086.01" cy="536.57" rx="30.58" ry="29.8"/>
      <ellipse class="cls-13" cx="1185.51" cy="554.37" rx="30.58" ry="29.8"/>
      <ellipse class="cls-13" cx="1252.14" cy="561.48" rx="30.58" ry="29.8"/>
      <ellipse class="cls-13" cx="1287.74" cy="546.36" rx="30.58" ry="29.8"/>
      <ellipse class="cls-14" cx="1117.96" cy="542.8" rx="30.58" ry="29.8"/>
      <ellipse class="cls-14" cx="1159.95" cy="561.48" rx="30.58" ry="29.8"/>
      <ellipse class="cls-14" cx="1226.58" cy="575.72" rx="30.58" ry="29.8"/>
      <ellipse class="cls-13" cx="1334.3" cy="554.37" rx="30.58" ry="29.8"/>
      <ellipse class="cls-13" cx="1282.27" cy="583.72" rx="30.58" ry="29.8"/>
      <ellipse class="cls-13" cx="1171.82" cy="590.84" rx="30.58" ry="29.8"/>
      <ellipse class="cls-13" cx="1241.19" cy="605.07" rx="30.58" ry="29.8"/>
      <ellipse class="cls-13" cx="1195.55" cy="605.07" rx="30.58" ry="29.8"/>
      <ellipse class="cls-14" cx="1317.87" cy="583.72" rx="30.58" ry="29.8"/>
      <ellipse class="cls-14" cx="1190.98" cy="620.2" rx="30.58" ry="29.8"/>
      <ellipse class="cls-13" cx="1098.79" cy="566.82" rx="30.58" ry="29.8"/>
      <ellipse class="cls-13" cx="1117.96" cy="589.95" rx="30.58" ry="29.8"/>
      <ellipse class="cls-13" cx="1069.58" cy="583.72" rx="30.58" ry="29.8"/>
      <ellipse class="cls-13" cx="1364.42" cy="589.95" rx="30.58" ry="29.8"/>
    </g>
    <g>
      <ellipse class="cls-15" cx="1346.37" cy="23.54" rx="40.6" ry="96.14" transform="translate(983.14 1320.2) rotate(-75.35)"/>
      <path class="cls-4" d="M589.28,195.46,638.91,183c-4.88-4.32-12.12-7.29-20.34-7.79-15.51-.95-28.63,7.22-29.31,18.26A14.38,14.38,0,0,0,589.28,195.46Z"/>
      <rect class="cls-16" x="585.98" y="174.67" width="505.06" height="59.42" rx="29.71"/>
      <ellipse class="cls-17" cx="1160.62" cy="189.07" rx="167.13" ry="85.69" transform="translate(-15.29 194.33) rotate(-9.51)"/>
      <ellipse class="cls-17" cx="1291.07" cy="99.1" rx="138.64" ry="85.36" transform="translate(305.05 938.42) rotate(-44.79)"/>
      <rect class="cls-18" x="601.83" y="144.96" width="505.06" height="59.42" rx="29.71"/>
      <path class="cls-4" d="M606.72,165.75l49.64-12.43c-4.89-4.33-12.13-7.3-20.34-7.8-15.51-1-28.63,7.22-29.31,18.27A16,16,0,0,0,606.72,165.75Z"/>
      <rect class="cls-17" x="815.73" y="198.44" width="302.05" height="59.42" rx="29.71" transform="translate(-24.41 162.84) rotate(-9.51)"/>
      <ellipse class="cls-4" cx="860.5" cy="245.32" rx="28.13" ry="20.03" transform="matrix(0.98, -0.22, 0.22, 0.98, -32.62, 190.79)"/>
      <rect class="cls-17" x="646.39" y="126.14" width="505.06" height="59.42" rx="29.71"/>
      <path class="cls-4" d="M652,146.68l49.64-12.43c-4.89-4.33-12.13-7.29-20.34-7.8-15.51-1-28.63,7.22-29.31,18.27A14.24,14.24,0,0,0,652,146.68Z"/>
      <path class="cls-4" d="M600.78,181.86a17.14,17.14,0,0,0-13.18,16.26,14.72,14.72,0,0,0,0,1.63l20.94-9.24A27.26,27.26,0,0,1,600.78,181.86Z"/>
      <rect class="cls-15" x="1276.03" y="-140.56" width="194.19" height="171.57" transform="translate(47.59 -417.31) rotate(17.58)"/>
    </g>
    <path class="cls-19" d="M1385.51,576.4l-353.46-1.33a28.77,28.77,0,0,0-25.92,16.06L891.69,823.52A28.76,28.76,0,0,0,917.5,865h586.73a28.77,28.77,0,0,0,25.59-41.92L1411,592A28.76,28.76,0,0,0,1385.51,576.4Z"/>
    <g>
      <g>
        <rect class="cls-20" x="1330.21" y="727.26" width="463.66" height="102.26" rx="16.93" transform="translate(-74.66 172.51) rotate(-6.17)"/>
        <ellipse class="cls-20" cx="1317.18" cy="743.58" rx="61.79" ry="58.93" transform="translate(-72.33 145.98) rotate(-6.17)"/>
        <ellipse class="cls-20" cx="1325.27" cy="842.32" rx="62.65" ry="59.75" transform="translate(-82.9 147.42) rotate(-6.17)"/>
      </g>
      <g>
        <rect class="cls-21" x="1355.3" y="728.84" width="463.66" height="102.26" rx="16.93" transform="translate(-74.68 175.22) rotate(-6.17)"/>
        <ellipse class="cls-21" cx="1342.27" cy="745.15" rx="61.79" ry="58.93" transform="translate(-72.36 148.68) rotate(-6.17)"/>
        <ellipse class="cls-21" cx="1350.36" cy="843.89" rx="62.65" ry="59.75" transform="translate(-82.93 150.13) rotate(-6.17)"/>
      </g>
    </g>
    <g>
      <path class="cls-21" d="M66.23,178c0-25.09,15.12-39.87,38.52-39.87,8.85,0,15.68,2,20.28,5.93h.44l.9-4.14h25.87v30.57H117.3c-.45-1.34-2.91-2.68-5.71-2.68-4.48,0-7.06,3.36-7.06,10.19,0,7.28,2.91,10.19,8,10.19a8.25,8.25,0,0,0,4.82-1.34V183.4h-6.61V175h42.67v41.11h-27l-.9-4.15H125c-4.6,3.92-11.43,5.94-20.28,5.94C81.35,217.9,66.23,203.12,66.23,178Z"/>
      <path class="cls-21" d="M156.5,184.64c0-21.28,14.33-33.27,39.87-33.27s39.87,12,39.87,33.27S221.9,217.9,196.37,217.9,156.5,205.92,156.5,184.64Zm43.9,0c0-5.6-1.23-7.73-4-7.73s-4,2.13-4,7.73,1.23,7.72,4,7.72S200.4,190.24,200.4,184.64Z"/>
      <path class="cls-21" d="M238.26,184.75c0-21.28,8.84-33.38,23.85-33.38,9.19,0,15.68,4.59,19.15,13.11h.45v-3.92c0-5.16-2.46-9.86-5.82-11.43v-12H316v50.51h4.15v28.45h-37.3V204.8h-.45c-3.58,8.62-10.3,13.1-19.82,13.1C247,217.9,238.26,205.92,238.26,184.75Zm43.45,5.37V179a4.17,4.17,0,0,0-3.69-2.13c-2.69,0-3.92,2.35-3.92,7.73s1.23,7.72,3.92,7.72A4.07,4.07,0,0,0,281.71,190.12Z"/>
      <path class="cls-21" d="M344.43,187.66h4.15V165.6h-4.15V137.15h38.42v27.33h.45c4.36-9.08,11.08-13.11,21.05-13.11,13.67,0,21.06,7.73,21.06,22.18v14.11h4.14v28.45H391.14V181.39c0-2.58-1.35-4-3.7-4-2,0-3.58,1.12-4.59,3.36v6.94H387v28.45H344.43Z"/>
      <path class="cls-21" d="M434.48,195.72V181.61h-4.14V153.16h38.41v34.72c0,2.58,1.35,4,3.7,4,2,0,3.58-1.12,4.59-3.36v-6.95H472.9V153.16h38.41v34.5h4.15v28.45h-37.3V204.8h-.45c-4.48,8.84-11.65,13.1-21.95,13.1C441.76,217.9,434.48,210.17,434.48,195.72Z"/>
      <path class="cls-21" d="M519.6,187.66h4.14v-6H519.6V153.16h37.3v11.32h.44c4.48-8.85,11.65-13.11,22-13.11,14,0,21.28,7.73,21.28,22.18v14.11h4.14v28.45H566.3V181.39c0-2.58-1.34-4-3.69-4-2,0-3.59,1.12-4.59,3.36v6.94h4.14v28.45H519.6Z"/>
      <path class="cls-21" d="M607.52,184.75c0-21.28,8.85-33.38,23.85-33.38,9.19,0,15.69,4.59,19.16,13.11H651v-3.92c0-5.16-2.47-9.86-5.83-11.43v-12h40.1v50.51h4.14v28.45H652.1V204.8h-.45c-3.59,8.62-10.31,13.1-19.83,13.1C616.26,217.9,607.52,205.92,607.52,184.75ZM651,190.12V179a4.19,4.19,0,0,0-3.7-2.13c-2.69,0-3.92,2.35-3.92,7.73s1.23,7.72,3.92,7.72A4.08,4.08,0,0,0,651,190.12Z"/>
      <path class="cls-21" d="M696.22,219.47c8.85,0,14.67-1.91,16.8-5.38l-.22-.33a17.14,17.14,0,0,1-6.38,1.23c-8.18,0-14.12-6.39-14.12-15.12,0-10.42,8.18-17.59,20.39-17.59,13.44,0,21.84,8.63,21.84,23,0,17.81-13.11,28.12-36.29,28.12Z"/>
      <path class="cls-21" d="M103.86,344.46h-.45l-.9,6.05H67.57V318H74a51.91,51.91,0,0,0,25.2,6.61c4.82,0,8-.68,11-2.13v-.45c-30.91-2.69-43.79-11.42-43.79-26.88,0-13.89,10.3-22.62,26-22.62a30.84,30.84,0,0,1,21.28,7.84h.45l.9-6h34.94V304h-6.38c-5.6-3.25-14.34-5.38-22.4-5.38a27.52,27.52,0,0,0-11.32,2.13v.45c32,3.47,44,11.09,44,27.44,0,15.12-10.3,23.63-27.22,23.63C117.63,352.3,111.14,350,103.86,344.46Z"/>
      <path class="cls-21" d="M156.39,322.06h4.14V316h-4.14V301.23c4.14,3.69,11.87,6,20.49,6a38.07,38.07,0,0,0,17.92-4.15v18.93h4.14v28.45H156.39Zm1-35.39c0-10.31,7.51-16.91,19.38-16.91s19.37,6.6,19.37,16.91-7.5,16.91-19.37,16.91S157.39,297,157.39,286.67Z"/>
      <path class="cls-21" d="M203.09,322.06h4.14V316h-4.14V287.56h36.62v11.32h.45c4.59-9.19,12-13.11,21.73-13.11,10.41,0,17.13,4.48,19.6,13.11h.45c4.48-8.85,11.64-13.11,21.72-13.11,13.78,0,20.95,7.73,20.95,22.18v14.11h4.14v28.45H291V315.79c0-2.58-1.35-4-3.7-4-2,0-3.58,1.12-4.59,3.36v6.94h4.14v28.45H249.12V315.79c0-2.58-1.34-4-3.7-4-2,0-3.58,1.12-4.59,3.36v6.94H245v28.45H203.09Z"/>
      <path class="cls-21" d="M331.55,319c0-21.28,14.34-33.27,39.87-33.27s39.88,12,39.88,33.27S397,352.3,371.42,352.3,331.55,340.32,331.55,319Zm43.91,0c0-5.6-1.24-7.73-4-7.73s-4,2.13-4,7.73,1.23,7.72,4,7.72S375.46,324.64,375.46,319Z"/>
      <path class="cls-21" d="M414.66,322.06h4.14V316h-4.14V287.56H452v11.32h.45c4.48-8.85,11.65-13.11,22-13.11,14,0,21.28,7.73,21.28,22.18v14.11h4.15v28.45H461.36V315.79c0-2.58-1.34-4-3.7-4-2,0-3.58,1.12-4.59,3.36v6.94h4.15v28.45H414.66Z"/>
      <path class="cls-21" d="M502.69,334.49c0-10.64,8.06-17.81,20.16-17.81S543,323.85,543,334.49s-8.07,17.81-20.16,17.81S502.69,345.13,502.69,334.49Z"/>
      <path class="cls-21" d="M67.12,561.33H71V544.81H67.12V520.43h37.54c25,0,37.82,11.14,37.82,32.64s-12.87,32.64-37.82,32.64H67.12Zm35.42,0c5.09,0,7.11-2.31,7.11-8.26s-2-8.26-7.11-8.26h-.67v16.52Z"/>
      <path class="cls-21" d="M144.31,558.73c0-18.52,12-28.51,34-28.51,20.16,0,30.81,8.35,30.81,23.71a39.4,39.4,0,0,1-.67,7.2H174.64c.38,3.55,3.17,4.61,11.33,4.61a79.35,79.35,0,0,0,19.2-2.21l2.3,19.49c-6.62,2.78-15.26,4.22-25.15,4.22Q144.31,587.24,144.31,558.73Zm37.15-4.41v-.87c0-4.32-1.06-6.24-3.46-6.24s-3.46,1.92-3.46,6.24v.87Z"/>
      <path class="cls-21" d="M215,570.73V556.14h-3.55v-21.5c5.66-1,8.83-5.18,10.75-14.21h21.89v11.33h10v24.38h-10v2.79c0,2.49,1.34,3.26,4.51,3.26a18.51,18.51,0,0,0,4.51-.58l1.44,23.52a58.19,58.19,0,0,1-16.9,2.11C221.1,587.24,215,582.83,215,570.73Z"/>
      <path class="cls-21" d="M315.37,577.64l-7-13H308v1.73c0,4.6,1,8.06,3.55,12.86v6.53H275.06V561.33h3.55V542.41h-3.55V518H308v38.11h.39l6.71-8.06h-3.55V531.76h33.79v24.38h-8.45l2.31,3.46a4.67,4.67,0,0,0,4.61,2.49,13.1,13.1,0,0,0,2.78-.28v23.9a41.41,41.41,0,0,1-11.52,1.53C325.55,587.24,319.12,584.65,315.37,577.64Z"/>
      <path class="cls-21" d="M350.13,561.33h3.55V542.41h-3.55V518h32.92v43.3h3.55v24.38H350.13Z"/>
      <path class="cls-21" d="M388.81,573.61c0-9.4,6-13.44,19.59-13.44a44.47,44.47,0,0,1,13,1.64V550.86c0-4.41-.87-7.1-3-8.93l-.38.2a13.49,13.49,0,0,1,.86,5.08c0,8.16-5.18,12.58-13.82,12.58-8.83,0-14.4-4.61-14.4-12.86,0-11.24,10.17-16.71,29.56-16.71,21,0,30.53,6.43,30.53,20.55v10.56h3.55v23.8a43,43,0,0,1-14.21,2.11c-8.44,0-13.43-1.73-15.45-5.47h-.38c-4.13,3.65-10.18,5.47-17.76,5.47C394.57,587.24,388.81,582.83,388.81,573.61Zm32.55,1.06v-5.19a3.06,3.06,0,0,0-2.6-1.15c-1.82,0-2.78,1.35-2.78,3.84s1,3.75,2.78,3.75A3,3,0,0,0,421.36,574.67Z"/>
      <path class="cls-21" d="M457.84,561.33h3.55v-5.19h-3.55V531.76H489v1.73c-1.43,2.2-2,5.08-2.3,9.79h.39c2.3-8.26,8.25-13.06,17.08-13.06,9.31,0,15,5.38,15,14.21s-5.38,14.3-14.31,14.3c-6.81,0-11.71-3.26-13.72-9.31h-.39v11.91h8.07v24.38h-41Z"/>
      <path class="cls-21" d="M519.28,558.73c0-18.52,12-28.51,34-28.51,20.16,0,30.81,8.35,30.81,23.71a39.4,39.4,0,0,1-.67,7.2H549.61c.38,3.55,3.17,4.61,11.33,4.61a79.35,79.35,0,0,0,19.2-2.21l2.3,19.49c-6.62,2.78-15.26,4.22-25.15,4.22Q519.28,587.24,519.28,558.73Zm37.15-4.41v-.87c0-4.32-1.06-6.24-3.46-6.24s-3.46,1.92-3.46,6.24v.87Z"/>
      <path class="cls-21" d="M585.71,558.83c0-18.24,7.58-28.61,20.44-28.61,7.88,0,13.44,3.94,16.42,11.23H623V538.1c0-4.42-2.11-8.45-5-9.8V518h34.37v43.3h3.55v24.38h-32V576h-.38c-3.07,7.39-8.83,11.23-17,11.23C593.19,587.24,585.71,577,585.71,558.83ZM623,563.44v-9.51a3.58,3.58,0,0,0-3.17-1.82c-2.3,0-3.36,2-3.36,6.62s1.06,6.63,3.36,6.63A3.5,3.5,0,0,0,623,563.44Z"/>
      <path class="cls-21" d="M658.28,558.73c0-18.52,12-28.51,34-28.51,20.15,0,30.81,8.35,30.81,23.71a39.4,39.4,0,0,1-.67,7.2H688.62c.38,3.55,3.16,4.61,11.32,4.61a79.29,79.29,0,0,0,19.2-2.21L721.45,583c-6.63,2.78-15.27,4.22-25.15,4.22Q658.28,587.24,658.28,558.73Zm37.15-4.41v-.87c0-4.32-1-6.24-3.45-6.24s-3.46,1.92-3.46,6.24v.87Z"/>
      <path class="cls-21" d="M66,674c0-18.24,7.58-28.61,20.45-28.61,7.87,0,13.44,3.94,16.41,11.23h.39V653.3c0-4.42-2.12-8.45-5-9.8V633.23h34.37v43.3h3.55v24.38h-32v-9.7h-.39c-3.07,7.39-8.83,11.23-17,11.23C73.46,702.44,66,692.17,66,674Zm37.25,4.61v-9.51a3.61,3.61,0,0,0-3.17-1.82c-2.31,0-3.36,2-3.36,6.62s1,6.63,3.36,6.63A3.51,3.51,0,0,0,103.22,678.64Z"/>
      <path class="cls-21" d="M141,683.44v-12.1h-3.55V647h32.93v29.76c0,2.21,1.15,3.45,3.16,3.45a4.22,4.22,0,0,0,3.94-2.88v-5.95H174V647h32.92v29.57h3.56v24.38h-32v-9.7h-.38c-3.84,7.59-10,11.23-18.82,11.23C147.28,702.44,141,695.82,141,683.44Z"/>
      <path class="cls-21" d="M229.75,701c0-4.8,1.72-8.06,5.66-10.17v-.39a9,9,0,0,1,3.45-14.39v-.39c-4.51-2.78-6.52-6.72-6.52-12.19,0-12.09,9.88-18.05,30-18.05a36,36,0,0,1,8.07.68c2.11-9.22,8.64-14.4,17.76-14.4,9.5,0,15.35,5.66,15.35,14.49,0,8.54-5.56,14.4-15,14.4-4.61,0-9.31-1.44-12-4.8l-.29.19c1.35,4.32,7.49,7.87,15.07,7.87,3.27,0,7.11-.67,9.51-2,0,14.3-8,18.81-32.55,18.81q-7.49,0-13.24-.57l-.19.28c.48,1.73,2.4,2.5,6.43,2.5h25.34c10.37,0,15.74,5.09,15.74,15,0,13.24-9.69,17.85-37.82,17.85C238.86,715.69,229.75,711.85,229.75,701Zm42.33-2.59c0-1.53-1.15-2-4.32-2h-8.83a2.38,2.38,0,0,0-.67,1.82c0,2.11,1.72,2.78,6.91,2.78S272.08,700.33,272.08,698.41Zm-3.75-35.23c0-3.45-1-4.89-3.07-4.89s-3.07,1.44-3.07,4.89,1,4.9,3.07,4.9S268.33,666.64,268.33,663.18Z"/>
      <path class="cls-21" d="M303.67,673.93c0-18.24,12.28-28.51,34.17-28.51S372,655.69,372,673.93s-12.28,28.51-34.17,28.51S303.67,692.17,303.67,673.93Zm37.63,0c0-4.8-1.06-6.62-3.46-6.62s-3.46,1.82-3.46,6.62,1.06,6.63,3.46,6.63S341.3,678.73,341.3,673.93Z"/>
      <path class="cls-21" d="M373.75,674c0-18.24,7.58-28.61,20.44-28.61,7.87,0,13.44,3.94,16.42,11.23H411V653.3c0-4.42-2.11-8.45-5-9.8V633.23h34.36v43.3h3.56v24.38H412v-9.7h-.38c-3.07,7.39-8.83,11.23-17,11.23C381.23,702.44,373.75,692.17,373.75,674ZM411,678.64v-9.51a3.58,3.58,0,0,0-3.17-1.82c-2.3,0-3.36,2-3.36,6.62s1.06,6.63,3.36,6.63A3.49,3.49,0,0,0,411,678.64Z"/>
      <path class="cls-21" d="M448.82,685.93V671.34h-3.55v-21.5c5.66-1,8.83-5.18,10.75-14.21H477.9V647h10v24.38h-10v2.79c0,2.49,1.35,3.26,4.52,3.26a18.51,18.51,0,0,0,4.51-.58l1.44,23.52a57.9,57.9,0,0,1-16.9,2.11C455,702.44,448.82,698,448.82,685.93Z"/>
      <path class="cls-21" d="M490.1,635.63h37.82l-5,37.82a34.11,34.11,0,0,0-27.84,0Zm2.11,52.61c0-8.84,6.43-14.21,16.8-14.21s16.8,5.37,16.8,14.21-6.43,14.2-16.8,14.2S492.21,697.07,492.21,688.24Z"/>
    </g>
  </g>
</svg>
