<svg xmlns="http://www.w3.org/2000/svg" width="1600" height="900" viewBox="0 0 1600 900">
  <defs>
    <style>
      .cls-1 {
        fill: #1d3458;
      }

      .cls-2 {
        fill: #b1d7b6;
      }

      .cls-3 {
        fill: #094872;
      }

      .cls-4 {
        fill: #388fcd;
      }

      .cls-5 {
        fill: #2d739e;
      }

      .cls-6 {
        fill: #fde2ca;
      }

      .cls-7 {
        fill: #80cad1;
      }

      .cls-8 {
        fill: #f3ba97;
      }

      .cls-9 {
        fill: #ef8485;
      }

      .cls-10 {
        fill: #d77173;
      }

      .cls-11 {
        fill: #dba78d;
      }

      .cls-12 {
        fill: #1d1d1b;
      }

      .cls-13 {
        fill: #eb6481;
      }

      .cls-14, .cls-15 {
        fill: none;
        stroke-linecap: round;
        stroke-linejoin: round;
      }

      .cls-14 {
        stroke: #1d1d1b;
        stroke-width: 0.25px;
      }

      .cls-15 {
        stroke: #f3ba97;
        stroke-width: 0.5px;
      }

      .cls-16 {
        fill: #2eb4ab;
      }

      .cls-17 {
        fill: #7e90c8;
      }

      .cls-18 {
        fill: #dbd4cc;
      }

      .cls-19 {
        fill: #d87073;
      }

      .cls-20 {
        fill: #f08586;
      }

      .cls-21 {
        fill: #6878a0;
      }

      .cls-22 {
        fill: #288a86;
      }

      .cls-23 {
        fill: #5cc0ca;
      }

      .cls-23, .cls-24 {
        opacity: 0.2;
      }

      .cls-25 {
        fill: #66a39a;
      }

      .cls-26 {
        fill: #73bcb3;
      }

      .cls-27 {
        fill: #2f9b93;
      }

      .cls-28 {
        fill: #9fe2da;
      }

      .cls-29 {
        fill: #bdf9f4;
      }

      .cls-30 {
        fill: #af5b61;
      }
    </style>
  </defs>
  <g id="Baggrundsfarve">
    <g>
      <rect class="cls-1" x="0.5" y="0.5" width="1599" height="899"/>
      <path d="M1599,1V899H1V1H1599m1-1H0V900H1600V0Z"/>
    </g>
    <rect class="cls-2" x="-12.26" y="96.02" width="114" height="4" rx="2" transform="translate(-51.38 146.71) rotate(-92.33)"/>
    <rect class="cls-2" x="-7" y="105" width="114" height="4" rx="2" transform="translate(-67.07 122.6) rotate(-72.55)"/>
    <rect class="cls-3" y="752" width="1600" height="148"/>
    <rect class="cls-4" x="-100" y="318" width="736" height="321" rx="110.22"/>
    <rect class="cls-5" x="-151" y="591" width="822" height="96" rx="43.05"/>
    <rect class="cls-5" x="573" y="408" width="125" height="231" rx="59.23"/>
    <rect class="cls-4" x="536" y="687" width="37" height="65"/>
    <rect class="cls-6" x="396" y="58" width="133" height="189"/>
    <polygon class="cls-7" points="521 237 404 237 404 67 483.38 67 521 67 521 237"/>
    <rect class="cls-2" x="404" y="230" width="117" height="8"/>
    <g>
      <path class="cls-8" d="M457.47,135.86l-6,4.43c-1.16,1.09.6,2,1.24,3.43l2.23,5.1a3.78,3.78,0,0,0,3.86,2.24l5.1.36c3.24,1.7,5.77-.56,4.81-3.67l-.35-4.05c.31-1.56-.54-4.82-1.9-5.63l-4.53-2.7A3.77,3.77,0,0,0,457.47,135.86Z"/>
      <ellipse class="cls-9" cx="418.24" cy="225.2" rx="6.33" ry="4.66" transform="matrix(1, -0.06, 0.06, 1, -13.32, 26.72)"/>
      <ellipse class="cls-9" cx="468.22" cy="223.89" rx="6.33" ry="4.66" transform="matrix(1, -0.06, 0.06, 1, -13.14, 29.86)"/>
      <ellipse class="cls-10" cx="441.98" cy="197.68" rx="33.43" ry="34.53" transform="translate(-11.55 28.16) rotate(-3.6)"/>
      <ellipse class="cls-10" cx="423.05" cy="228.03" rx="6.33" ry="4.66" transform="translate(-13.49 27.03) rotate(-3.6)"/>
      <ellipse class="cls-10" cx="462.13" cy="228.09" rx="6.33" ry="4.66" transform="translate(-13.42 29.49) rotate(-3.6)"/>
      <circle class="cls-9" cx="444.08" cy="196.37" r="34.93"/>
      <ellipse class="cls-8" cx="447.23" cy="198.06" rx="23.05" ry="26.25" transform="translate(-11.56 28.49) rotate(-3.6)"/>
      <ellipse class="cls-9" cx="423.95" cy="228.51" rx="6.33" ry="4.66" transform="translate(-13.52 27.09) rotate(-3.6)"/>
      <ellipse class="cls-9" cx="463.34" cy="228.01" rx="6.33" ry="4.66" transform="translate(-13.41 29.56) rotate(-3.6)"/>
      <ellipse class="cls-10" cx="442.82" cy="159.64" rx="20.37" ry="17.66" transform="translate(-9.16 28.14) rotate(-3.6)"/>
      <polygon class="cls-11" points="455.99 138.3 463.93 151.39 443.4 147.4 455.99 138.3"/>
      <ellipse class="cls-9" cx="442.64" cy="156.84" rx="21.06" ry="18.72" transform="translate(-8.98 28.12) rotate(-3.6)"/>
      <polygon class="cls-10" points="428.95 142.81 421.99 160.84 421.45 144.9 428.95 142.81"/>
      <path class="cls-8" d="M413.41,144l1.49,9.84c-.12,12.13,6.85,9.29,9-1.23l4.35-8a2.85,2.85,0,0,0-2.29-4.34l-9.91-.46A2.84,2.84,0,0,0,413.41,144Z"/>
      <circle class="cls-12" cx="437.82" cy="153.79" r="1.34"/>
      <circle class="cls-12" cx="457.38" cy="152.56" r="1.21"/>
      <rect class="cls-8" x="434.46" y="150.29" width="3.69" height="1.58" rx="0.57" transform="translate(-17.79 234.63) rotate(-29.53)"/>
      <rect class="cls-8" x="456.12" y="148.97" width="3.69" height="1.58" rx="0.57" transform="translate(68.71 -134.21) rotate(18)"/>
      <path class="cls-8" d="M461.32,159.24c0-1.48-2.21-3.7-6.4-4.73-3.36-.82-3.5-.57-4.78-.2"/>
      <path class="cls-8" d="M463.38,163c1.37,9.83-7,8.81-14.65,12.08-12.57,5.39-18.65,1.32-17.63-10.05.54-6,6.33-9.53,15.52-10.93C456.69,152.59,462.51,156.76,463.38,163Z"/>
      <path class="cls-10" d="M451.88,153.48l-7.55,1.3a1.68,1.68,0,0,0-.47,1.68l6.84,3.43c.57.28,1.56-3.24,1.83-3.79l.46-1.28C453.28,154.22,452.77,153.54,451.88,153.48Z"/>
      <path class="cls-13" d="M453.6,167.81c-1.16.49-2.3-.62-3.34-2-1.2-1.63-.8-2.84.86-3.81s2.81,0,3.33,2C454.88,165.7,454.75,167.32,453.6,167.81Z"/>
      <path class="cls-14" d="M434.05,165.55a5,5,0,0,0,1.52,2.83,10.79,10.79,0,0,0,4.64,2.86,6.49,6.49,0,0,0,5.06-.34,5.35,5.35,0,0,0,1-.81l.55-.6a8.57,8.57,0,0,0,1.16-1.77,11.56,11.56,0,0,0,.81-2A5.78,5.78,0,0,1,450.9,162a4.85,4.85,0,0,1,2.36-.61,5.63,5.63,0,0,1,1.23.11,8.27,8.27,0,0,0-2.33.05"/>
      <path class="cls-15" d="M443.38,153.23a9.56,9.56,0,0,1,4.14-1.49,9.81,9.81,0,0,1,4.37.5"/>
    </g>
    <rect class="cls-16" x="468" y="197" width="34" height="34" rx="12.31"/>
    <rect class="cls-16" x="488" y="197" width="33" height="34"/>
    <rect class="cls-17" y="82.7" width="98.3" height="98.3" rx="49.15"/>
    <polygon class="cls-3" points="504.5 197 481.34 67 521 67 521 197 504.5 197"/>
    <rect class="cls-18" x="-11" y="168" width="323" height="12"/>
    <g>
      <ellipse class="cls-19" cx="68.89" cy="46.2" rx="3.1" ry="6.2"/>
      <ellipse class="cls-19" cx="72.41" cy="46.78" rx="6.2" ry="3.1" transform="translate(1.62 95.97) rotate(-67.65)"/>
      <ellipse class="cls-19" cx="75.8" cy="49.59" rx="6.2" ry="3.1" transform="translate(-12.78 30.65) rotate(-21.12)"/>
      <ellipse class="cls-19" cx="61.76" cy="52.33" rx="3.1" ry="6.2" transform="translate(-1.83 102.42) rotate(-78.51)"/>
      <ellipse class="cls-19" cx="63.02" cy="49" rx="3.1" ry="6.2" transform="translate(-12.77 74.06) rotate(-56.16)"/>
      <ellipse class="cls-19" cx="66.46" cy="46.25" rx="3.1" ry="6.2" transform="translate(-6.8 11.77) rotate(-9.63)"/>
      <ellipse class="cls-19" cx="74.96" cy="51.95" rx="3.1" ry="6.2" transform="translate(12.82 118.71) rotate(-81.77)"/>
      <ellipse class="cls-19" cx="73.89" cy="55.35" rx="3.1" ry="6.2" transform="translate(-11.35 90.82) rotate(-59.43)"/>
      <ellipse class="cls-19" cx="70.62" cy="58.29" rx="3.1" ry="6.2" transform="translate(-11.23 17.24) rotate(-12.9)"/>
      <ellipse class="cls-19" cx="67.99" cy="58.8" rx="3.1" ry="6.2"/>
      <ellipse class="cls-19" cx="64.47" cy="58.22" rx="6.2" ry="3.1" transform="translate(-13.9 95.71) rotate(-67.65)"/>
      <ellipse class="cls-19" cx="61.09" cy="55.41" rx="6.2" ry="3.1" transform="translate(-15.86 25.74) rotate(-21.12)"/>
    </g>
    <g>
      <ellipse class="cls-20" cx="40.19" cy="31.87" rx="5.13" ry="10.27"/>
      <ellipse class="cls-20" cx="46.01" cy="32.82" rx="10.27" ry="5.13" transform="translate(-1.83 62.9) rotate(-67.65)"/>
      <ellipse class="cls-20" cx="51.61" cy="37.49" rx="10.27" ry="5.13" transform="translate(-10.04 21.12) rotate(-21.12)"/>
      <ellipse class="cls-20" cx="28.37" cy="42.02" rx="5.13" ry="10.27" transform="translate(-18.46 61.45) rotate(-78.51)"/>
      <ellipse class="cls-20" cx="30.47" cy="36.5" rx="5.13" ry="10.27" transform="translate(-16.82 41.48) rotate(-56.16)"/>
      <ellipse class="cls-20" cx="36.16" cy="31.94" rx="5.13" ry="10.27" transform="translate(-4.83 6.5) rotate(-9.63)"/>
      <ellipse class="cls-20" cx="50.24" cy="41.39" rx="5.13" ry="10.27" transform="translate(2.09 85.19) rotate(-81.77)"/>
      <ellipse class="cls-20" cx="48.46" cy="47.02" rx="5.13" ry="10.27" transform="translate(-16.67 64.83) rotate(-59.43)"/>
      <ellipse class="cls-20" cx="43.04" cy="51.89" rx="5.13" ry="10.27" transform="translate(-10.5 10.92) rotate(-12.9)"/>
      <ellipse class="cls-20" cx="38.68" cy="52.73" rx="5.13" ry="10.27"/>
      <ellipse class="cls-20" cx="32.86" cy="51.78" rx="10.27" ry="5.13" transform="translate(-27.53 62.48) rotate(-67.65)"/>
      <ellipse class="cls-20" cx="27.26" cy="47.11" rx="10.27" ry="5.13" transform="translate(-15.15 12.99) rotate(-21.12)"/>
    </g>
    <path class="cls-21" d="M572.7,542.52c19.76,64.75-87.48,62.51-149.66,52C358.11,583.59,314.11,468.75,366,446.74c55.15-23.41,92.57-78.47,149.66-52S555.21,485.21,572.7,542.52Z"/>
    <path class="cls-7" d="M302.1,596.79c-48.44,2-47-126.84-3.25-113.85,36,10.68,77.67-41.66,113.16-12.92,33.07,26.78,33.61,78.84,3.26,113.85S345,595,302.1,596.79Z"/>
    <g>
      <path class="cls-2" d="M179,105.46c-7.36,12.84-8.09-40.91,1.42-87.68s29.46-96,33-81.68c4.69,18.89,18.56,43.25,9,90S199,70.58,179,105.46Z"/>
      <path class="cls-2" d="M185,120.5C182.67,139,162.71,73.59,154.87,12.84s-6.78-128.53,1.72-112.32c11.19,21.31,32.94,45.81,40.78,106.56S191.26,70.3,185,120.5Z"/>
      <path class="cls-2" d="M167.69,96.28c0,9.57-17.67-20.37-27.33-49.68s-14.28-63.39-7.67-56.47c8.7,9.11,24.3,18.34,34,47.65S167.73,70.28,167.69,96.28Z"/>
      <path class="cls-2" d="M152.29,109.06c-8.73,3.92,11.32-24.48,34.08-45.34s51.92-39,48.33-30.18C230,45.21,228,63.23,205.21,84.08S176,98.41,152.29,109.06Z"/>
      <polygon class="cls-22" points="201.98 167.07 152.21 167.07 138.92 86.7 218.26 86.7 201.98 167.07"/>
    </g>
    <g>
      <rect class="cls-23" x="1014" y="-19" width="615" height="771"/>
      <rect class="cls-24" x="1014" y="-19" width="615" height="771"/>
      <g>
        <path class="cls-25" d="M1319.37,41.15V616.91c66-.11,119.47-37.2,119.47-82.93S1385.38,42.45,1319.37,41.15Z"/>
        <path class="cls-26" d="M1203.48,533.82c0-45.73,53.46-491.52,119.47-492.82V616.75c-66-.1-119.47-37.19-119.47-82.93"/>
        <path class="cls-27" d="M1322.13,751a7.78,7.78,0,0,1-7.78-7.78V382.7a7.78,7.78,0,0,1,7.78-7.78h0a7.78,7.78,0,0,1,7.78,7.78V743.2a7.78,7.78,0,0,1-7.78,7.78"/>
        <rect class="cls-27" x="1279.52" y="430.68" width="15.56" height="118.86" rx="2.08" transform="matrix(0.8, -0.6, 0.6, 0.8, -35.59, 873.91)"/>
        <rect class="cls-27" x="1333.83" y="392.77" width="15.56" height="87.24" rx="2.08" transform="matrix(0.84, 0.54, -0.54, 0.84, 451.97, -658.55)"/>
      </g>
      <g>
        <g>
          <path class="cls-28" d="M1182.9-223.77V573.45c82.93-.15,150.1-51.5,150.1-114.83S1265.83-222,1182.9-223.77Z"/>
          <path class="cls-29" d="M1187.39-224V573.23c-82.93-.15-150.1-51.5-150.1-114.82S1104.46-222.18,1187.39-224Z"/>
        </g>
        <path class="cls-27" d="M1180.21,752.2V252.93A10.78,10.78,0,0,1,1191,242.15h0a10.78,10.78,0,0,1,10.78,10.78V752.2"/>
        <rect class="cls-27" x="1211.29" y="286.75" width="21.55" height="120.82" rx="2.08" transform="translate(384.36 -607.94) rotate(32.89)"/>
        <rect class="cls-27" x="1128.41" y="342.55" width="21.55" height="164.61" rx="2.08" transform="translate(-26.16 771.57) rotate(-37.02)"/>
      </g>
      <g>
        <path class="cls-8" d="M1276.13,452.86l-19.05,12.38c-3.76,3.11,1.47,6.17,3.13,10.75l5.84,16a11.53,11.53,0,0,0,11.36,7.58l15.51,2.09c9.59,5.84,17.75-.59,15.42-10.28l-.27-12.45c1.25-4.72-.72-14.84-4.75-17.6L1290,452.22A11.55,11.55,0,0,0,1276.13,452.86Z"/>
        <ellipse class="cls-9" cx="1139.01" cy="718.42" rx="19.4" ry="14.26"/>
        <ellipse class="cls-9" cx="1292.03" cy="724.04" rx="19.4" ry="14.26"/>
        <ellipse class="cls-10" cx="1216.88" cy="638.87" rx="102.41" ry="105.76"/>
        <ellipse class="cls-10" cx="1153.15" cy="728" rx="19.4" ry="14.26"/>
        <ellipse class="cls-10" cx="1272.63" cy="735.7" rx="19.4" ry="14.26"/>
        <circle class="cls-9" cx="1223.55" cy="635.26" r="107"/>
        <ellipse class="cls-8" cx="1232.86" cy="641.04" rx="70.61" ry="80.4"/>
        <ellipse class="cls-9" cx="1155.81" cy="729.65" rx="19.4" ry="14.26"/>
        <ellipse class="cls-9" cx="1276.35" cy="735.7" rx="19.4" ry="14.26"/>
        <ellipse class="cls-10" cx="1226.75" cy="522.73" rx="62.39" ry="54.11"/>
        <polygon class="cls-11" points="1271.14 460.02 1292.89 501.57 1230.88 485.43 1271.14 460.02"/>
        <ellipse class="cls-9" cx="1226.75" cy="514.15" rx="64.5" ry="57.35"/>
        <polygon class="cls-10" points="1187.6 468.63 1162.84 522.4 1164.28 473.57 1187.6 468.63"/>
        <path class="cls-8" d="M1139.87,469.26l2.65,30.37c-2.69,37.06,19.15,29.71,27.71-2l14.81-23.7a8.71,8.71,0,0,0-6.14-13.71l-30.21-3.32A8.71,8.71,0,0,0,1139.87,469.26Z"/>
        <circle class="cls-12" cx="1212.61" cy="503.89" r="4.11"/>
        <circle class="cls-12" cx="1272.63" cy="503.89" r="3.72"/>
        <rect class="cls-8" x="1202.85" y="492.89" width="11.3" height="4.83" rx="2.42" transform="translate(50.94 1100.16) rotate(-49.87)"/>
        <rect class="cls-8" x="1269.31" y="493.02" width="11.3" height="4.83" rx="2.42" transform="translate(912.25 -823.43) rotate(53.39)"/>
        <path class="cls-8" d="M1283.39,525.07c.3-4.53-6-11.74-18.64-15.68-10.11-3.16-10.61-2.43-14.58-1.54"/>
        <path class="cls-8" d="M1289,537.06c2.29,30.31-23.16,25.59-47.12,34.12-39.47,14-57.25.44-51.95-34.12,2.79-18.18,21.18-27.92,49.54-30.44C1270.51,503.85,1287.5,517.73,1289,537.06Z"/>
        <path class="cls-10" d="M1255.63,505.66l-23.32,2.52a5.18,5.18,0,0,0-1.77,5L1250.81,525c1.67,1,5.4-9.6,6.32-11.23l1.64-3.83C1259.78,508.17,1258.35,506,1255.63,505.66Z"/>
        <path class="cls-13" d="M1258.13,549.78c-3.63,1.28-6.91-2.32-9.81-6.82-3.35-5.21-1.89-8.82,3.35-11.48s8.62.4,9.81,6.83C1262.46,543.58,1261.77,548.5,1258.13,549.78Z"/>
        <path class="cls-14" d="M1197,550c.27,3.46,8.76-10.58,11-8,3.69,4.26,7.67.09,13,2,4.87,1.75,8.26,4.49,13,2,1.17-.61,2,.9,3,0,.61-.56,1.42-2.41,2-3,1.51-1.56.93-1.11,2-3s.28.16,1-2c1.38-4.13,5-4.17,9-6.41,2.25-1.26,4.8-1.37,7.31-1.4a17.83,17.83,0,0,1,3.76.58,24,24,0,0,0-7.13-.3"/>
        <path class="cls-15" d="M1229.71,503.24a29.59,29.59,0,0,1,26.21-1.37"/>
      </g>
      <path class="cls-7" d="M1129.67,393.05C1135,409.86,1123,425,1114.78,425s-21.68-15.67-14.89-31.95c7-16.85,7.86-22.65,14.89-31.95C1119.74,354.54,1124.29,376.2,1129.67,393.05Z"/>
      <path class="cls-7" d="M1559.5,651.05c5.36,16.81-6.67,32-14.89,32s-21.68-15.67-14.89-32c7-16.86,7.86-22.65,14.89-31.95C1549.57,612.53,1554.12,634.19,1559.5,651.05Z"/>
      <path class="cls-7" d="M1502.5,531.05c5.36,16.81-6.67,32-14.89,32s-21.68-15.67-14.89-32c7-16.86,7.86-22.65,14.89-31.95C1492.57,492.53,1497.12,514.19,1502.5,531.05Z"/>
      <path class="cls-7" d="M1559.5,348.05c5.36,16.81-6.67,31.95-14.89,31.95s-21.68-15.67-14.89-31.95c7-16.86,7.86-22.65,14.89-31.95C1549.57,309.53,1554.12,331.19,1559.5,348.05Z"/>
      <path class="cls-7" d="M1470.5,286.05c5.36,16.81-6.67,31.95-14.89,31.95s-21.68-15.67-14.89-31.95c7-16.86,7.86-22.65,14.89-32C1460.57,247.53,1465.12,269.19,1470.5,286.05Z"/>
      <path class="cls-7" d="M1398.35,679.36c2.62,8.23-3.26,15.64-7.29,15.64s-10.61-7.67-7.29-15.64c3.44-8.25,3.85-11.08,7.29-15.64C1393.49,660.51,1395.72,671.11,1398.35,679.36Z"/>
      <path class="cls-7" d="M1502.53,425.37c2.63,8.23-3.26,15.64-7.29,15.64s-10.61-7.67-7.28-15.64c3.44-8.25,3.84-11.08,7.28-15.64C1497.67,406.52,1499.9,417.12,1502.53,425.37Z"/>
      <path class="cls-7" d="M1511.53,704.37c2.63,8.23-3.26,15.64-7.29,15.64s-10.61-7.67-7.28-15.64c3.44-8.25,3.84-11.08,7.28-15.64C1506.67,685.52,1508.9,696.12,1511.53,704.37Z"/>
      <path class="cls-7" d="M1586.3,522.37C1588.92,530.6,1583,538,1579,538s-10.61-7.67-7.29-15.64c3.44-8.25,3.85-11.08,7.29-15.64C1581.44,503.52,1583.67,514.12,1586.3,522.37Z"/>
      <path class="cls-7" d="M1422.3,495.37C1424.92,503.6,1419,511,1415,511s-10.61-7.67-7.29-15.64c3.44-8.25,3.85-11.08,7.29-15.64C1417.44,476.52,1419.67,487.12,1422.3,495.37Z"/>
      <path class="cls-7" d="M1446.3,612.37C1448.92,620.6,1443,628,1439,628s-10.61-7.67-7.29-15.64c3.44-8.25,3.85-11.08,7.29-15.64C1441.44,593.52,1443.67,604.12,1446.3,612.37Z"/>
      <path class="cls-7" d="M1340.3,477.37C1342.92,485.6,1337,493,1333,493s-10.61-7.67-7.29-15.64c3.44-8.25,3.85-11.08,7.29-15.64C1335.44,458.52,1337.67,469.12,1340.3,477.37Z"/>
      <path class="cls-7" d="M1386.3,366.37C1388.92,374.6,1383,382,1379,382s-10.61-7.67-7.29-15.64c3.44-8.25,3.85-11.08,7.29-15.64C1381.44,347.52,1383.67,358.12,1386.3,366.37Z"/>
      <path class="cls-7" d="M1274.3,366.37C1276.92,374.6,1271,382,1267,382s-10.61-7.67-7.29-15.64c3.44-8.25,3.85-11.08,7.29-15.64C1269.44,347.52,1271.67,358.12,1274.3,366.37Z"/>
      <path class="cls-7" d="M1089.3,639.37C1091.92,647.6,1086,655,1082,655s-10.61-7.67-7.29-15.64c3.44-8.25,3.85-11.08,7.29-15.64C1084.44,620.52,1086.67,631.12,1089.3,639.37Z"/>
      <path class="cls-7" d="M1303.3,612.37C1305.92,620.6,1300,628,1296,628s-10.61-7.67-7.29-15.64c3.44-8.25,3.85-11.08,7.29-15.64C1298.44,593.52,1300.67,604.12,1303.3,612.37Z"/>
      <path class="cls-7" d="M1198.3,663.37C1200.92,671.6,1195,679,1191,679s-10.61-7.67-7.29-15.64c3.44-8.25,3.85-11.08,7.29-15.64C1193.44,644.52,1195.67,655.12,1198.3,663.37Z"/>
      <path class="cls-7" d="M1186.3,530.37C1188.92,538.6,1183,546,1179,546s-10.61-7.67-7.29-15.64c3.44-8.25,3.85-11.08,7.29-15.64C1181.44,511.52,1183.67,522.12,1186.3,530.37Z"/>
      <path class="cls-7" d="M1109.3,533.37C1111.92,541.6,1106,549,1102,549s-10.61-7.67-7.29-15.64c3.44-8.25,3.85-11.08,7.29-15.64C1104.44,514.52,1106.67,525.12,1109.3,533.37Z"/>
      <path class="cls-7" d="M1044.3,457.37C1046.92,465.6,1041,473,1037,473s-10.61-7.67-7.29-15.64c3.44-8.25,3.85-11.08,7.29-15.64C1039.44,438.52,1041.67,449.12,1044.3,457.37Z"/>
      <path class="cls-7" d="M1326.26,269.05c5.37,16.81-6.66,31.95-14.88,31.95s-21.69-15.67-14.89-31.95c7-16.86,7.85-22.65,14.89-32C1316.33,230.53,1320.89,252.19,1326.26,269.05Z"/>
      <path class="cls-7" d="M1162.26,225.05c5.37,16.81-6.66,31.95-14.88,31.95s-21.69-15.67-14.89-31.95c7-16.86,7.85-22.65,14.89-32C1152.33,186.53,1156.89,208.19,1162.26,225.05Z"/>
      <path class="cls-7" d="M1535.26,142.45c5.37,16.81-6.66,32-14.88,32s-21.69-15.66-14.89-32c7-16.85,7.85-22.64,14.89-31.95C1525.33,103.94,1529.89,125.6,1535.26,142.45Z"/>
      <path class="cls-7" d="M1378.26,61.45c5.37,16.81-6.66,32-14.88,32s-21.69-15.66-14.89-31.95c7-16.85,7.85-22.64,14.89-31.95C1368.33,22.94,1372.89,44.6,1378.26,61.45Z"/>
      <path class="cls-7" d="M1089.26,67.45c5.37,16.81-6.66,32-14.88,32s-21.69-15.66-14.89-31.95c7-16.85,7.85-22.64,14.89-31.95C1079.33,28.94,1083.89,50.6,1089.26,67.45Z"/>
      <path class="cls-7" d="M1254.26,104.45c5.37,16.81-6.66,32-14.88,32s-21.69-15.66-14.89-31.95c7-16.85,7.85-22.64,14.89-31.95C1244.33,65.94,1248.89,87.6,1254.26,104.45Z"/>
      <path class="cls-7" d="M1414.26,203.45c5.37,16.81-6.66,32-14.88,32s-21.69-15.66-14.89-32c7-16.85,7.85-22.64,14.89-31.95C1404.33,164.94,1408.89,186.6,1414.26,203.45Z"/>
      <path class="cls-7" d="M1527.3,257.78c2.62,8.22-3.27,15.63-7.29,15.63s-10.61-7.66-7.29-15.63c3.44-8.25,3.85-11.09,7.29-15.64C1522.44,238.93,1524.67,249.53,1527.3,257.78Z"/>
      <path class="cls-7" d="M1406.3,285.78c2.62,8.22-3.27,15.63-7.29,15.63s-10.61-7.66-7.29-15.63c3.44-8.25,3.85-11.09,7.29-15.64C1401.44,266.93,1403.67,277.53,1406.3,285.78Z"/>
      <path class="cls-7" d="M1337.3,186.78c2.62,8.22-3.27,15.63-7.29,15.63s-10.61-7.66-7.29-15.63c3.44-8.25,3.85-11.09,7.29-15.64C1332.44,167.93,1334.67,178.53,1337.3,186.78Z"/>
      <path class="cls-7" d="M1454.3,125.78c2.62,8.22-3.27,15.63-7.29,15.63s-10.61-7.66-7.29-15.63c3.44-8.25,3.85-11.09,7.29-15.64C1449.44,106.93,1451.67,117.53,1454.3,125.78Z"/>
      <path class="cls-7" d="M1560.3,50.78c2.62,8.22-3.27,15.63-7.29,15.63s-10.61-7.66-7.29-15.63c3.44-8.25,3.85-11.09,7.29-15.64C1555.44,31.93,1557.67,42.53,1560.3,50.78Z"/>
      <path class="cls-7" d="M1057.3,235.78c2.62,8.22-3.27,15.63-7.29,15.63s-10.61-7.66-7.29-15.63c3.44-8.25,3.85-11.09,7.29-15.64C1052.44,216.93,1054.67,227.53,1057.3,235.78Z"/>
      <path class="cls-7" d="M1179.3,125.78c2.62,8.22-3.27,15.63-7.29,15.63s-10.61-7.66-7.29-15.63c3.44-8.25,3.85-11.09,7.29-15.64C1174.44,106.93,1176.67,117.53,1179.3,125.78Z"/>
      <path class="cls-7" d="M1240.3,219.78c2.62,8.22-3.27,15.63-7.29,15.63s-10.61-7.66-7.29-15.63c3.44-8.25,3.85-11.09,7.29-15.64C1235.44,200.93,1237.67,211.53,1240.3,219.78Z"/>
      <path class="cls-7" d="M1209.3,24.78c2.62,8.22-3.27,15.63-7.29,15.63s-10.61-7.66-7.29-15.63c3.44-8.25,3.85-11.09,7.29-15.64C1204.44,5.93,1206.67,16.53,1209.3,24.78Z"/>
      <path class="cls-7" d="M1217.3,347.78c2.62,8.22-3.27,15.63-7.29,15.63s-10.61-7.66-7.29-15.63c3.44-8.25,3.85-11.09,7.29-15.64C1212.44,328.93,1214.67,339.53,1217.3,347.78Z"/>
      <g>
        <rect class="cls-4" x="1006.42" y="-3.04" width="31" height="766"/>
        <rect class="cls-4" x="1332.42" y="-3.04" width="31" height="766"/>
        <rect class="cls-4" x="1134.74" y="544.55" width="111.81" height="324.62" transform="translate(1897.51 -483.78) rotate(90)"/>
        <rect class="cls-4" x="1459.28" y="544.61" width="111.81" height="324.62" transform="translate(2222.1 -808.27) rotate(90)"/>
        <rect class="cls-4" x="1185.71" y="-14.83" width="28.95" height="324.62" transform="translate(1347.67 -1052.7) rotate(90)"/>
        <rect class="cls-4" x="1472.71" y="-14.39" width="28.95" height="324.62" transform="translate(1635.1 -1339.27) rotate(90)"/>
      </g>
    </g>
    <g>
      <path class="cls-20" d="M100.56,281.13c0-44.8,27-71.2,68.8-71.2,15.8,0,28,3.6,36.2,10.6h.8l1.6-7.4h46.2v54.6h-62.4c-.8-2.4-5.2-4.8-10.2-4.8-8,0-12.6,6-12.6,18.2,0,13,5.2,18.2,14.2,18.2a14.67,14.67,0,0,0,8.6-2.4v-6.2H180v-15h76.2v73.4H208l-1.6-7.4h-.8c-8.2,7-20.4,10.6-36.2,10.6C127.56,352.33,100.56,325.93,100.56,281.13Z"/>
      <path class="cls-20" d="M263.76,298.33h8l9.6-34.4h-11.2v-50.8h126.4l23.6,85.2h8v50.8H353v-55.2h-19.8l-1.6,10.4H345v44.8h-81.2Zm85.8-25.2-6.4-27.4h-.8l-6.4,27.4Z"/>
      <path class="cls-20" d="M435.76,298.33h8v-34.4h-8v-50.8h98.6l8,34.4h.8l8-34.4h102v50.8h-8v34.4h8v50.8h-78.4v-44.8h8v-49.6H582l-23.6,94.4h-35.2l-23.6-94.4h-.8v49.6h8v44.8h-71Z"/>
      <path class="cls-20" d="M661.56,298.33h8v-34.4h-8v-50.8h151.2v63h-58.4v-18.2H734v11h12.4v24.4H734v11h20.4v-18.2h60.4v63H661.56Z"/>
      <path class="cls-20" d="M856.56,281.13c0-45.6,28.2-71.2,78.4-71.2s78.4,25.6,78.4,71.2-28.2,71.2-78.4,71.2S856.56,326.73,856.56,281.13Zm88.4,0c0-10.8-3.2-16-10-16s-10,5.2-10,16,3.2,16,10,16S945,291.93,945,281.13Z"/>
      <path class="cls-20" d="M1025.76,263.93h-8v-50.8h74.6v50.8l8.4,36.4h.8l8.4-36.4h-9.6v-50.8h77.8v50.8h-8.4l-24.2,85.2h-95.2Z"/>
      <path class="cls-20" d="M1185.76,298.33h8v-34.4h-8v-50.8H1337v63h-58.39v-18.2h-20.4v11h12.4v24.4h-12.4v11h20.4v-18.2H1339v63H1185.76Z"/>
      <path class="cls-20" d="M1430.15,320.93l-10-22h-.8v7.8c0,13.8,5,22.4,8,26.8v15.6H1347v-50.8h8v-34.4h-8v-50.8h99c41.4,0,58.4,12,58.4,39.8,0,17-6.2,27.4-20,32.8l3.4,5.4c3.4,5.2,6.4,7.2,12.4,7.2a11.68,11.68,0,0,0,4.2-.6v51.4c-5.2,2.2-12.2,3.2-21.8,3.2C1454.75,352.33,1440.56,343.93,1430.15,320.93Zm5.8-58c0-6.2-3.8-9.2-10.6-9.2h-6v16.6a16.91,16.91,0,0,0,7,1.4C1432.76,271.73,1436,268.73,1436,262.93Z"/>
    </g>
    <g>
      <path class="cls-30" d="M86.6,288c0-44.8,27-71.2,68.8-71.2,15.8,0,28,3.6,36.2,10.6h.8L194,220h46.2v54.6H177.8c-.8-2.4-5.2-4.8-10.2-4.8-8,0-12.6,6-12.6,18.2,0,13,5.2,18.2,14.2,18.2a14.67,14.67,0,0,0,8.6-2.4v-6.2H166v-15h76.2V356H194l-1.6-7.4h-.8c-8.2,7-20.4,10.6-36.2,10.6C113.6,359.21,86.6,332.81,86.6,288Z"/>
      <path class="cls-30" d="M249.8,305.21h8l9.6-34.4H256.2V220H382.6l23.59,85.2h8V356H339v-55.2H319.2l-1.6,10.4H331V356H249.8ZM335.6,280l-6.4-27.4h-.8L322,280Z"/>
      <path class="cls-30" d="M421.79,305.21h8v-34.4h-8V220h98.6l8,34.4h.8l8-34.4h102v50.8h-8v34.4h8V356h-78.4v-44.8h8v-49.6H568L544.39,356h-35.2l-23.6-94.4h-.8v49.6h8V356h-71Z"/>
      <path class="cls-30" d="M647.59,305.21h8v-34.4h-8V220h151.2v63h-58.4v-18.2H720v11h12.4v24.4H720v11h20.4V293h60.4v63H647.59Z"/>
      <path class="cls-30" d="M842.59,288c0-45.6,28.2-71.2,78.4-71.2s78.4,25.6,78.4,71.2-28.2,71.2-78.4,71.2S842.59,333.61,842.59,288Zm88.4,0c0-10.8-3.2-16-10-16s-10,5.2-10,16,3.2,16,10,16S931,298.81,931,288Z"/>
      <path class="cls-30" d="M1011.79,270.81h-8V220h74.6v50.8l8.4,36.4h.8l8.4-36.4h-9.6V220h77.8v50.8h-8.4l-24.2,85.2h-95.2Z"/>
      <path class="cls-30" d="M1171.79,305.21h8v-34.4h-8V220H1323v63h-58.4v-18.2h-20.4v11h12.4v24.4h-12.4v11h20.4V293H1325v63h-153.2Z"/>
      <path class="cls-30" d="M1416.19,327.81l-10-22h-.8v7.8c0,13.8,5,22.4,8,26.8V356H1333v-50.8h8v-34.4h-8V220h99c41.4,0,58.4,12,58.4,39.8,0,17-6.2,27.4-20,32.8l3.4,5.4c3.4,5.2,6.4,7.2,12.4,7.2a11.68,11.68,0,0,0,4.2-.6V356c-5.2,2.2-12.2,3.2-21.8,3.2C1440.79,359.21,1426.59,350.81,1416.19,327.81Zm5.8-58c0-6.2-3.8-9.2-10.6-9.2h-6v16.6a16.85,16.85,0,0,0,7,1.4C1418.79,278.61,1422,275.61,1422,269.81Z"/>
    </g>
  </g>
</svg>
