<svg xmlns="http://www.w3.org/2000/svg" width="465" height="190" viewBox="0 0 465 190">
  <defs>
    <style>
      .cls-1 {
        fill: #ebeef3;
      }
    </style>
  </defs>
  <g id="Baggrundsfarve">
    <g>
      <g>
        <ellipse class="cls-1" cx="245" cy="95" rx="74" ry="55"/>
        <polygon class="cls-1" points="219.36 137.52 146 145 175.28 100.03 219.36 137.52"/>
      </g>
      <g>
        <path d="M199.4,80.82h.92V76.87h-.92V71h11l1.75,6.44h.09V71h7.24v5.85h-.92v9.79h-8.92l-2.9-10.12h-.09v5h.92v5.15H199.4Z"/>
        <path d="M219.62,80.2c0-4.44,2.87-6.83,8.14-6.83,4.82,0,7.38,2,7.38,5.68a9.5,9.5,0,0,1-.16,1.72h-8.1c.09.86.76,1.11,2.71,1.11a19.24,19.24,0,0,0,4.6-.53l.56,4.67a16,16,0,0,1-6,1Q219.62,87,219.62,80.2Zm8.89-1.06v-.2c0-1-.25-1.5-.82-1.5s-.83.46-.83,1.5v.2Z"/>
        <path d="M235.81,89.7V84h.85V79.58h-.85v-3A6.58,6.58,0,0,0,240,77.79a7.73,7.73,0,0,0,3.67-.86V85.6c0,3.29-1.33,4.6-4.64,4.6A10.22,10.22,0,0,1,235.81,89.7Zm.2-16.15c0-2.11,1.54-3.47,4-3.47s4,1.36,4,3.47S242.43,77,240,77,236,75.67,236,73.55Z"/>
        <path d="M206.87,113h-.09l-.18,1.24h-7.18v-6.67h1.31a10.66,10.66,0,0,0,5.18,1.36,4.84,4.84,0,0,0,2.25-.44v-.09c-6.35-.55-9-2.34-9-5.52,0-2.85,2.11-4.64,5.33-4.64a6.31,6.31,0,0,1,4.37,1.61H209l.19-1.25h7.17v6.1H215a9.8,9.8,0,0,0-4.6-1.11,5.65,5.65,0,0,0-2.32.44v.09c6.58.72,9,2.28,9,5.64,0,3.1-2.12,4.85-5.59,4.85A7.12,7.12,0,0,1,206.87,113Z"/>
        <path d="M217.66,108.42h.85v-1.24h-.85v-3a6.6,6.6,0,0,0,4.21,1.25,7.8,7.8,0,0,0,3.68-.86v3.89h.85v5.84h-8.74Zm.21-7.27c0-2.11,1.54-3.47,4-3.47s4,1.36,4,3.47-1.54,3.48-4,3.48S217.87,103.27,217.87,101.15Z"/>
        <path d="M227.25,108.42h.85v-1.24h-.85v-5.84h7.52v2.32h.09a4.58,4.58,0,0,1,4.46-2.69c2.14,0,3.52.92,4,2.69h.09A4.6,4.6,0,0,1,247.9,101c2.83,0,4.3,1.59,4.3,4.55v2.9h.85v5.84H245.3v-7.13c0-.53-.27-.82-.76-.82a1,1,0,0,0-.94.68v1.43h.85v5.84H236.7v-7.13c0-.53-.27-.82-.76-.82a1,1,0,0,0-.94.68v1.43h.85v5.84h-8.6Z"/>
        <path d="M253.63,107.8c0-4.37,2.95-6.83,8.19-6.83s8.18,2.46,8.18,6.83-2.94,6.83-8.18,6.83S253.63,112.17,253.63,107.8Zm9,0c0-1.15-.26-1.59-.83-1.59s-.83.44-.83,1.59.25,1.59.83,1.59S262.65,109,262.65,107.8Z"/>
        <path d="M270.7,108.42h.85v-1.24h-.85v-5.84h7.66v2.32h.09A4.62,4.62,0,0,1,283,101c2.88,0,4.37,1.59,4.37,4.55v2.9h.85v5.84h-7.88v-7.13a.72.72,0,0,0-.76-.82,1,1,0,0,0-.95.68v1.43h.86v5.84H270.7Z"/>
        <path d="M288.66,98.62h9.06l-1.19,9.06a8.19,8.19,0,0,0-6.67,0Zm.51,12.61c0-2.12,1.54-3.41,4-3.41s4,1.29,4,3.41-1.54,3.4-4,3.4S289.17,113.34,289.17,111.23Z"/>
      </g>
    </g>
  </g>
</svg>
